<svg width="13" height="13" viewBox="0 0 13 13" fill="none" xmlns="http://www.w3.org/2000/svg">
<path d="M3.87684 10.4697V12.1443L2.58635 10.4697H2.24573V12.753H2.59599V11.0832L3.88917 12.753H4.24533V10.4697H3.87684Z" fill="#2A725A"/>
<path d="M4.64936 10.4697V12.753H5.10251V10.4697H4.64936Z" fill="#2A725A"/>
<path d="M10.9652 10.4672H9.77241L9.36356 12.7522H10.6751L10.7437 12.3639H10.0257L10.1346 11.7534H10.7187L10.7873 11.3651H10.2034L10.2943 10.8556H10.8968L10.9652 10.4672Z" fill="#BBA757"/>
<path d="M12.0973 10.4672H11.3355L10.9263 12.7522H11.6665C12.3815 12.7522 13 12.2496 13 11.4265C13 10.8587 12.6876 10.4672 12.0973 10.4672ZM11.7447 12.3639H11.5884L11.8569 10.8556H12.0194C12.2566 10.8556 12.3941 11.1399 12.3941 11.4336C12.3941 12.0402 12.0194 12.3639 11.7447 12.3639Z" fill="#BBA757"/>
<path d="M6.48642 12.3639C6.24869 12.3639 6.11151 12.0795 6.11151 11.7859C6.11151 11.1793 6.48642 10.8557 6.76096 10.8557H7.49935L7.56883 10.4674H6.83901C6.12401 10.4674 5.50565 10.9698 5.50565 11.7928C5.50565 12.3607 5.81787 12.7522 6.40837 12.7522H7.16338L7.23197 12.3639H6.48642Z" fill="#BBA757"/>
<path d="M8.84862 11.7368C9.05188 11.6322 9.31105 11.4463 9.31105 11.0484C9.31105 10.8066 9.1578 10.4672 8.69572 10.4672H7.82176L7.41237 12.7522H8.00269L8.15845 11.8872H8.32742L8.54944 12.7526H9.19745L8.84862 11.7368ZM8.39904 11.4989H8.22114L8.33974 10.8556H8.49299C8.61785 10.8556 8.72376 10.9894 8.72376 11.1265C8.72376 11.3384 8.55854 11.4989 8.39904 11.4989Z" fill="#BBA757"/>
<path d="M1.39517 10.4691V11.7204C1.38499 12.2308 1.29032 12.5273 0.926836 12.5273C0.925229 12.5273 0.919156 12.5273 0.917548 12.5273C0.554066 12.5273 0.459221 12.2308 0.449218 11.7204V10.4691H0V11.8647C0 12.3594 0.174686 12.6559 0.576928 12.7539C0.576928 12.7539 0.690528 12.7816 0.891828 12.7816C0.892899 12.7816 0.951485 12.7816 0.952557 12.7816C1.15386 12.7816 1.24888 12.7536 1.24888 12.7536C1.67059 12.6652 1.84421 12.3594 1.84421 11.8647V10.4691H1.39517Z" fill="#2A725A"/>
<path d="M12.9586 5.90315L9.82317 0.241523L9.79609 0.194797C9.79547 0.191507 9.79358 0.188217 9.79169 0.185584C9.72243 0.0802882 9.61099 0.0105296 9.48318 0.0013162C9.47311 0 9.46429 0 9.45422 0C9.4454 0 9.43659 0 9.42903 0.0013162H5.48453C5.47697 0.0013162 5.46942 0.0013162 5.46186 0.00197431C5.46186 0.00197431 5.46186 0.00197431 5.46123 0.00197431C5.44738 0.00197431 5.43227 0.0039486 5.41842 0.0072391C5.41716 0.0072391 5.41653 0.0072391 5.41464 0.0072391C5.40898 0.0085553 5.40205 0.0098715 5.39575 0.0105296C5.3882 0.013162 5.38064 0.0144782 5.37309 0.0171107C5.36994 0.0184268 5.36679 0.0197431 5.36364 0.0204011C5.28117 0.0473832 5.1968 0.106612 5.10613 0.207301L0.0799604 5.88143C0.0799604 5.88143 0.0667387 5.89328 0.0497392 5.91368C0.0434431 5.92158 0.0371468 5.93145 0.0302213 5.94198C0.0107033 5.97357 0 6.01108 0 6.05057C0 6.16178 0.0837381 6.25194 0.188253 6.25655C0.192031 6.25655 0.195809 6.25655 0.199586 6.25655C0.201475 6.25655 2.58392 6.25787 2.58644 6.25787C2.62106 6.25787 2.65003 6.28748 2.65003 6.32434C2.65003 6.34145 2.6431 6.35724 2.63366 6.36843C2.63366 6.36843 2.63366 6.36843 2.63366 6.36909C2.63366 6.36909 2.63366 6.36974 2.63429 6.36974L0.219734 9.07058C0.212178 9.07782 0.205882 9.08572 0.199586 9.09428C0.181957 9.11599 0.168735 9.13903 0.159291 9.16074C0.153625 9.17851 0.149217 9.19694 0.149217 9.21668C0.149217 9.27196 0.175661 9.32198 0.214697 9.35225C0.243029 9.37134 0.278287 9.38318 0.320471 9.38713C0.330545 9.38845 0.33936 9.3891 0.349433 9.3891H1.98012C2.0689 9.3891 2.17215 9.35028 2.25652 9.26538C2.25904 9.26407 2.26156 9.26143 2.26408 9.25946L4.81085 6.39146C4.82659 6.37764 4.83729 6.35724 4.83729 6.33421C4.83729 6.29209 4.80455 6.25787 4.76426 6.25787C4.76111 6.25787 3.38415 6.25918 3.38415 6.25787C3.34826 6.2526 3.32119 6.22101 3.32119 6.18284C3.32119 6.16442 3.32749 6.14796 3.33882 6.1348C3.33882 6.13414 3.33882 6.13414 3.33882 6.13349L6.02222 3.11215C6.03166 3.10096 6.04173 3.09175 6.05244 3.0832C6.08644 3.04568 6.13366 3.02199 6.18591 3.02199C6.25139 3.02199 6.30806 3.05753 6.34143 3.11084C6.34206 3.11084 7.86256 5.85774 7.86256 5.85774L8.01871 6.13875C8.01997 6.13941 8.0206 6.14138 8.0206 6.14204L8.02689 6.15323C8.02689 6.15323 8.02689 6.15323 8.02563 6.15323C8.02941 6.16244 8.0313 6.17166 8.0313 6.18153C8.0313 6.22299 8.00045 6.25523 7.96141 6.25655C7.96078 6.25655 6.56053 6.25918 6.55864 6.25918C6.50764 6.26182 6.46672 6.30591 6.46672 6.35921C6.46672 6.38356 6.47365 6.39607 6.48687 6.42239L8.00549 9.1693L8.01619 9.18838C8.07978 9.29894 8.19059 9.3766 8.32029 9.3891H11.4967C11.5344 9.38845 11.5684 9.38318 11.5987 9.37331C11.6824 9.33777 11.7422 9.25222 11.7422 9.15219C11.7422 9.11928 11.7359 9.08835 11.7246 9.06071L11.6956 9.00872L10.2205 6.35724C10.2205 6.35658 10.2135 6.33618 10.2135 6.32434H10.2142L10.2135 6.32368C10.2135 6.28748 10.2419 6.25918 10.2759 6.25918C10.2803 6.25787 10.2859 6.25655 10.2922 6.25655C10.2922 6.25655 12.7792 6.25655 12.7804 6.25655H12.7811C12.7811 6.25655 12.7811 6.25655 12.7817 6.25655H12.7981C12.8195 6.25655 12.839 6.2526 12.8579 6.24668C12.8579 6.24668 12.8591 6.24602 12.8604 6.24602C12.8654 6.24339 12.8724 6.24142 12.8787 6.23812C12.8812 6.23747 12.8831 6.23615 12.885 6.23483C12.8856 6.23418 12.8862 6.23418 12.8862 6.23418C12.8875 6.23352 12.89 6.23286 12.8913 6.23154C12.8988 6.22694 12.907 6.22167 12.9146 6.21707C12.9164 6.21509 12.9177 6.21377 12.919 6.21246C12.9253 6.20785 12.9322 6.20127 12.9385 6.19535C12.9404 6.19272 12.9435 6.19008 12.946 6.18679C12.9517 6.18021 12.9567 6.17429 12.9618 6.16771C12.9649 6.16113 12.9693 6.1552 12.9737 6.14796C12.9788 6.13875 12.9838 6.12954 12.9882 6.11967C12.9914 6.11111 12.9945 6.10124 12.997 6.09137C13.0021 6.05846 13.0065 5.98805 12.9586 5.90315ZM8.12259 2.88511C8.12133 2.88577 8.12133 2.88642 8.1207 2.88708H4.31408C4.31408 2.88642 4.31346 2.88577 4.31346 2.88577C4.27694 2.88313 4.24798 2.85023 4.24798 2.8114C4.24798 2.79232 4.25427 2.77521 4.26623 2.76139C4.26623 2.76139 4.26623 2.76139 4.2656 2.76073L6.5089 0.227702C6.52653 0.208617 6.54542 0.192165 6.5662 0.178345C6.59705 0.15597 6.63357 0.142149 6.67512 0.142149C6.67575 0.142149 6.68142 0.142149 6.68268 0.142149C6.68771 0.142149 6.69275 0.143466 6.69653 0.144124C6.75067 0.150705 6.79852 0.182293 6.82749 0.227702C6.82812 0.227702 8.20318 2.73375 8.20318 2.73375C8.20381 2.73506 8.20507 2.73704 8.20507 2.73835C8.21326 2.75283 8.21703 2.76928 8.21703 2.78573C8.21703 2.84102 8.17485 2.88511 8.12259 2.88511Z" fill="#BBA757"/>
</svg>
