<svg width="13" height="13" viewBox="0 0 13 13" fill="none" xmlns="http://www.w3.org/2000/svg">
<circle cx="6.5" cy="6.5" r="6.5" fill="#333333"/>
<path d="M9.52417 9.8342C9.66215 9.83914 9.77802 9.73129 9.78296 9.59331L9.86353 7.34475C9.86847 7.20677 9.76062 7.09091 9.62264 7.08596C9.48466 7.08102 9.36879 7.18887 9.36385 7.32685L9.29223 9.32557L7.29351 9.25395C7.15553 9.24901 7.03967 9.35686 7.03472 9.49484C7.02978 9.63282 7.13763 9.74869 7.27561 9.75363L9.52417 9.8342ZM6.89354 7.11552L9.35013 9.75469L9.71611 9.41402L7.25953 6.77486L6.89354 7.11552Z" fill="#999999"/>
<path d="M3.87583 3.1658C3.73784 3.16086 3.62198 3.26871 3.61703 3.40669L3.53647 5.65525C3.53152 5.79323 3.63937 5.90909 3.77735 5.91404C3.91534 5.91898 4.0312 5.81113 4.03615 5.67315L4.10776 3.67443L6.10648 3.74605C6.24446 3.75099 6.36033 3.64314 6.36527 3.50516C6.37021 3.36718 6.26237 3.25131 6.12438 3.24637L3.87583 3.1658ZM6.50645 5.88448L4.04987 3.24531L3.68388 3.58598L6.14046 6.22514L6.50645 5.88448Z" fill="#999999"/>
</svg>
