<svg width="60" height="60" viewBox="0 0 60 60" fill="none" xmlns="http://www.w3.org/2000/svg">
<rect x="2.75" y="2.75" width="54.5" height="54.5" rx="27.25" fill="white" stroke="#D9D9D9" stroke-width="5.5"/>
<path d="M18.7389 22.3636L19.8184 25.4247H19.8611L20.9406 22.3636H21.4023L20.067 26H19.6125L18.2773 22.3636H18.7389ZM22.4605 26.0639C22.2877 26.0639 22.1308 26.0314 21.99 25.9663C21.8491 25.9 21.7372 25.8047 21.6544 25.6804C21.5715 25.5549 21.5301 25.4034 21.5301 25.2259C21.5301 25.0696 21.5609 24.9429 21.6224 24.8459C21.684 24.7476 21.7662 24.6707 21.8692 24.6151C21.9722 24.5594 22.0858 24.518 22.2101 24.4908C22.3356 24.4624 22.4617 24.4399 22.5883 24.4233C22.7541 24.402 22.8884 24.386 22.9914 24.3754C23.0956 24.3635 23.1713 24.344 23.2187 24.3168C23.2672 24.2895 23.2915 24.2422 23.2915 24.1747V24.1605C23.2915 23.9853 23.2435 23.8492 23.1476 23.7521C23.0529 23.6551 22.9091 23.6065 22.7162 23.6065C22.5161 23.6065 22.3593 23.6503 22.2456 23.7379C22.132 23.8255 22.0521 23.919 22.0059 24.0185L21.6082 23.8764C21.6792 23.7107 21.7739 23.5817 21.8923 23.4893C22.0119 23.3958 22.1421 23.3307 22.2829 23.294C22.425 23.2562 22.5647 23.2372 22.702 23.2372C22.7896 23.2372 22.8902 23.2479 23.0038 23.2692C23.1186 23.2893 23.2293 23.3313 23.3358 23.3952C23.4436 23.4592 23.5329 23.5556 23.604 23.6847C23.675 23.8137 23.7105 23.9865 23.7105 24.2031V26H23.2915V25.6307H23.2702C23.2417 25.6899 23.1944 25.7532 23.1281 25.8207C23.0618 25.8881 22.9736 25.9455 22.8635 25.9929C22.7535 26.0402 22.6191 26.0639 22.4605 26.0639ZM22.5244 25.6875C22.6901 25.6875 22.8298 25.6549 22.9434 25.5898C23.0583 25.5247 23.1447 25.4407 23.2027 25.3377C23.2619 25.2347 23.2915 25.1264 23.2915 25.0128V24.6293C23.2737 24.6506 23.2346 24.6701 23.1743 24.6879C23.1151 24.7044 23.0464 24.7192 22.9683 24.7322C22.8914 24.7441 22.8162 24.7547 22.7428 24.7642C22.6706 24.7725 22.612 24.7796 22.567 24.7855C22.4581 24.7997 22.3563 24.8228 22.2616 24.8548C22.1681 24.8855 22.0924 24.9323 22.0344 24.995C21.9775 25.0566 21.9491 25.1406 21.9491 25.2472C21.9491 25.3928 22.003 25.5028 22.1107 25.5774C22.2196 25.6508 22.3575 25.6875 22.5244 25.6875ZM22.5386 22.9034L22.9719 22.0795H23.4619L22.9079 22.9034H22.5386ZM24.8944 22.3636V26H24.4753V22.3636H24.8944ZM25.6618 26V23.2727H26.0809V26H25.6618ZM25.8749 22.8182C25.7932 22.8182 25.7228 22.7904 25.6636 22.7347C25.6056 22.6791 25.5766 22.6122 25.5766 22.5341C25.5766 22.456 25.6056 22.3891 25.6636 22.3335C25.7228 22.2778 25.7932 22.25 25.8749 22.25C25.9566 22.25 26.0264 22.2778 26.0844 22.3335C26.1436 22.3891 26.1732 22.456 26.1732 22.5341C26.1732 22.6122 26.1436 22.6791 26.0844 22.7347C26.0264 22.7904 25.9566 22.8182 25.8749 22.8182ZM27.8782 26.0568C27.6509 26.0568 27.4503 25.9994 27.2763 25.8846C27.1023 25.7686 26.9661 25.6052 26.8679 25.3945C26.7696 25.1826 26.7205 24.9323 26.7205 24.6435C26.7205 24.357 26.7696 24.1084 26.8679 23.8977C26.9661 23.687 27.1029 23.5243 27.2781 23.4094C27.4532 23.2946 27.6557 23.2372 27.8853 23.2372C28.0629 23.2372 28.2031 23.2668 28.3061 23.326C28.4103 23.384 28.4896 23.4503 28.544 23.5249C28.5997 23.5982 28.6429 23.6586 28.6737 23.706H28.7092V22.3636H29.1282V26H28.7234V25.581H28.6737C28.6429 25.6307 28.5991 25.6934 28.5423 25.7692C28.4854 25.8437 28.4044 25.9106 28.299 25.9698C28.1937 26.0278 28.0534 26.0568 27.8782 26.0568ZM27.935 25.6804C28.1031 25.6804 28.2451 25.6366 28.3612 25.549C28.4772 25.4602 28.5653 25.3377 28.6257 25.1815C28.6861 25.024 28.7163 24.8423 28.7163 24.6364C28.7163 24.4328 28.6867 24.2546 28.6275 24.1019C28.5683 23.948 28.4807 23.8285 28.3647 23.7433C28.2487 23.6568 28.1055 23.6136 27.935 23.6136C27.7575 23.6136 27.6095 23.6592 27.4911 23.7504C27.3739 23.8403 27.2857 23.9628 27.2266 24.1179C27.1686 24.2718 27.1396 24.4446 27.1396 24.6364C27.1396 24.8305 27.1692 25.0069 27.2283 25.1655C27.2887 25.3229 27.3775 25.4484 27.4947 25.5419C27.613 25.6342 27.7598 25.6804 27.935 25.6804ZM31.0618 26.0568C30.8156 26.0568 30.5996 25.9982 30.4137 25.881C30.229 25.7638 30.0846 25.5999 29.9805 25.3892C29.8775 25.1785 29.826 24.9323 29.826 24.6506C29.826 24.3665 29.8775 24.1185 29.9805 23.9066C30.0846 23.6947 30.229 23.5302 30.4137 23.413C30.5996 23.2958 30.8156 23.2372 31.0618 23.2372C31.308 23.2372 31.5234 23.2958 31.7081 23.413C31.8939 23.5302 32.0384 23.6947 32.1413 23.9066C32.2455 24.1185 32.2976 24.3665 32.2976 24.6506C32.2976 24.9323 32.2455 25.1785 32.1413 25.3892C32.0384 25.5999 31.8939 25.7638 31.7081 25.881C31.5234 25.9982 31.308 26.0568 31.0618 26.0568ZM31.0618 25.6804C31.2488 25.6804 31.4027 25.6325 31.5234 25.5366C31.6442 25.4407 31.7335 25.3146 31.7915 25.1584C31.8496 25.0021 31.8786 24.8329 31.8786 24.6506C31.8786 24.4683 31.8496 24.2984 31.7915 24.141C31.7335 23.9835 31.6442 23.8563 31.5234 23.7592C31.4027 23.6622 31.2488 23.6136 31.0618 23.6136C30.8748 23.6136 30.7209 23.6622 30.6001 23.7592C30.4794 23.8563 30.39 23.9835 30.332 24.141C30.274 24.2984 30.245 24.4683 30.245 24.6506C30.245 24.8329 30.274 25.0021 30.332 25.1584C30.39 25.3146 30.4794 25.4407 30.6001 25.5366C30.7209 25.6325 30.8748 25.6804 31.0618 25.6804ZM34.3435 27.0227V23.2727H34.7483V23.706H34.798C34.8288 23.6586 34.8714 23.5982 34.9259 23.5249C34.9815 23.4503 35.0608 23.384 35.1638 23.326C35.268 23.2668 35.4088 23.2372 35.5864 23.2372C35.816 23.2372 36.0184 23.2946 36.1936 23.4094C36.3688 23.5243 36.5055 23.687 36.6038 23.8977C36.702 24.1084 36.7512 24.357 36.7512 24.6435C36.7512 24.9323 36.702 25.1826 36.6038 25.3945C36.5055 25.6052 36.3694 25.7686 36.1954 25.8846C36.0214 25.9994 35.8208 26.0568 35.5935 26.0568C35.4183 26.0568 35.278 26.0278 35.1727 25.9698C35.0673 25.9106 34.9862 25.8437 34.9294 25.7692C34.8726 25.6934 34.8288 25.6307 34.798 25.581H34.7625V27.0227H34.3435ZM34.7554 24.6364C34.7554 24.8423 34.7856 25.024 34.846 25.1815C34.9063 25.3377 34.9945 25.4602 35.1105 25.549C35.2265 25.6366 35.3686 25.6804 35.5367 25.6804C35.7119 25.6804 35.858 25.6342 35.9752 25.5419C36.0936 25.4484 36.1824 25.3229 36.2416 25.1655C36.3019 25.0069 36.3321 24.8305 36.3321 24.6364C36.3321 24.4446 36.3025 24.2718 36.2433 24.1179C36.1853 23.9628 36.0972 23.8403 35.9788 23.7504C35.8616 23.6592 35.7142 23.6136 35.5367 23.6136C35.3662 23.6136 35.223 23.6568 35.107 23.7433C34.991 23.8285 34.9034 23.948 34.8442 24.1019C34.785 24.2546 34.7554 24.4328 34.7554 24.6364ZM38.4983 26.0568C38.2521 26.0568 38.0361 25.9982 37.8502 25.881C37.6656 25.7638 37.5212 25.5999 37.417 25.3892C37.314 25.1785 37.2625 24.9323 37.2625 24.6506C37.2625 24.3665 37.314 24.1185 37.417 23.9066C37.5212 23.6947 37.6656 23.5302 37.8502 23.413C38.0361 23.2958 38.2521 23.2372 38.4983 23.2372C38.7445 23.2372 38.96 23.2958 39.1446 23.413C39.3305 23.5302 39.4749 23.6947 39.5779 23.9066C39.682 24.1185 39.7341 24.3665 39.7341 24.6506C39.7341 24.9323 39.682 25.1785 39.5779 25.3892C39.4749 25.5999 39.3305 25.7638 39.1446 25.881C38.96 25.9982 38.7445 26.0568 38.4983 26.0568ZM38.4983 25.6804C38.6853 25.6804 38.8392 25.6325 38.96 25.5366C39.0807 25.4407 39.1701 25.3146 39.2281 25.1584C39.2861 25.0021 39.3151 24.8329 39.3151 24.6506C39.3151 24.4683 39.2861 24.2984 39.2281 24.141C39.1701 23.9835 39.0807 23.8563 38.96 23.7592C38.8392 23.6622 38.6853 23.6136 38.4983 23.6136C38.3113 23.6136 38.1574 23.6622 38.0367 23.7592C37.9159 23.8563 37.8266 23.9835 37.7686 24.141C37.7106 24.2984 37.6816 24.4683 37.6816 24.6506C37.6816 24.8329 37.7106 25.0021 37.7686 25.1584C37.8266 25.3146 37.9159 25.4407 38.0367 25.5366C38.1574 25.6325 38.3113 25.6804 38.4983 25.6804ZM40.3738 26V23.2727H40.7786V23.6847H40.807C40.8567 23.5497 40.9467 23.4402 41.0769 23.3562C41.2071 23.2721 41.3539 23.2301 41.5172 23.2301C41.548 23.2301 41.5865 23.2307 41.6326 23.2319C41.6788 23.2331 41.7137 23.2348 41.7374 23.2372V23.6634C41.7232 23.6598 41.6906 23.6545 41.6397 23.6474C41.59 23.6391 41.5373 23.6349 41.4817 23.6349C41.3491 23.6349 41.2308 23.6628 41.1266 23.7184C41.0236 23.7728 40.9419 23.8486 40.8816 23.9457C40.8224 24.0415 40.7928 24.151 40.7928 24.2741V26H40.3738Z" fill="black"/>
<path d="M19.375 37.0994C18.84 37.0994 18.3842 36.9538 18.0078 36.6626C17.6314 36.3691 17.3438 35.9441 17.1449 35.3878C16.946 34.8291 16.8466 34.1544 16.8466 33.3636C16.8466 32.5777 16.946 31.9065 17.1449 31.3501C17.3461 30.7914 17.6349 30.3653 18.0114 30.0717C18.3902 29.7758 18.8447 29.6278 19.375 29.6278C19.9053 29.6278 20.3587 29.7758 20.7351 30.0717C21.1139 30.3653 21.4027 30.7914 21.6016 31.3501C21.8028 31.9065 21.9034 32.5777 21.9034 33.3636C21.9034 34.1544 21.804 34.8291 21.6051 35.3878C21.4062 35.9441 21.1186 36.3691 20.7422 36.6626C20.3658 36.9538 19.91 37.0994 19.375 37.0994ZM19.375 36.3182C19.9053 36.3182 20.3172 36.0625 20.6108 35.5511C20.9044 35.0398 21.0511 34.3106 21.0511 33.3636C21.0511 32.7339 20.9837 32.1977 20.8487 31.755C20.7161 31.3123 20.5244 30.9749 20.2734 30.7429C20.0249 30.5109 19.7254 30.3949 19.375 30.3949C18.8494 30.3949 18.4387 30.6541 18.1428 31.1726C17.8468 31.6887 17.6989 32.419 17.6989 33.3636C17.6989 33.9934 17.7652 34.5284 17.8977 34.9688C18.0303 35.4091 18.2209 35.7441 18.4695 35.9737C18.7204 36.2034 19.0223 36.3182 19.375 36.3182ZM25.625 37.0994C25.09 37.0994 24.6342 36.9538 24.2578 36.6626C23.8814 36.3691 23.5938 35.9441 23.3949 35.3878C23.196 34.8291 23.0966 34.1544 23.0966 33.3636C23.0966 32.5777 23.196 31.9065 23.3949 31.3501C23.5961 30.7914 23.8849 30.3653 24.2614 30.0717C24.6402 29.7758 25.0947 29.6278 25.625 29.6278C26.1553 29.6278 26.6087 29.7758 26.9851 30.0717C27.3639 30.3653 27.6527 30.7914 27.8516 31.3501C28.0528 31.9065 28.1534 32.5777 28.1534 33.3636C28.1534 34.1544 28.054 34.8291 27.8551 35.3878C27.6562 35.9441 27.3686 36.3691 26.9922 36.6626C26.6158 36.9538 26.16 37.0994 25.625 37.0994ZM25.625 36.3182C26.1553 36.3182 26.5672 36.0625 26.8608 35.5511C27.1544 35.0398 27.3011 34.3106 27.3011 33.3636C27.3011 32.7339 27.2337 32.1977 27.0987 31.755C26.9661 31.3123 26.7744 30.9749 26.5234 30.7429C26.2749 30.5109 25.9754 30.3949 25.625 30.3949C25.0994 30.3949 24.6887 30.6541 24.3928 31.1726C24.0968 31.6887 23.9489 32.419 23.9489 33.3636C23.9489 33.9934 24.0152 34.5284 24.1477 34.9688C24.2803 35.4091 24.4709 35.7441 24.7195 35.9737C24.9704 36.2034 25.2723 36.3182 25.625 36.3182ZM30.1278 36.0696C29.9527 36.0696 29.8023 36.0069 29.6768 35.8814C29.5514 35.7559 29.4886 35.6056 29.4886 35.4304C29.4886 35.2552 29.5514 35.1049 29.6768 34.9794C29.8023 34.8539 29.9527 34.7912 30.1278 34.7912C30.303 34.7912 30.4534 34.8539 30.5788 34.9794C30.7043 35.1049 30.767 35.2552 30.767 35.4304C30.767 35.5464 30.7375 35.6529 30.6783 35.75C30.6214 35.8471 30.5445 35.9252 30.4474 35.9844C30.3527 36.0412 30.2462 36.0696 30.1278 36.0696ZM30.1278 32.3906C29.9527 32.3906 29.8023 32.3279 29.6768 32.2024C29.5514 32.0769 29.4886 31.9266 29.4886 31.7514C29.4886 31.5762 29.5514 31.4259 29.6768 31.3004C29.8023 31.175 29.9527 31.1122 30.1278 31.1122C30.303 31.1122 30.4534 31.175 30.5788 31.3004C30.7043 31.4259 30.767 31.5762 30.767 31.7514C30.767 31.8674 30.7375 31.974 30.6783 32.071C30.6214 32.1681 30.5445 32.2462 30.4474 32.3054C30.3527 32.3622 30.2462 32.3906 30.1278 32.3906ZM34.5295 37.0994C34.1128 37.0994 33.7376 37.0166 33.4038 36.8509C33.07 36.6851 32.8024 36.4579 32.6012 36.169C32.4 35.8802 32.2899 35.5511 32.271 35.1818H33.1232C33.1564 35.5109 33.3055 35.7831 33.5707 35.9986C33.8382 36.2116 34.1578 36.3182 34.5295 36.3182C34.8278 36.3182 35.0929 36.2483 35.3249 36.1087C35.5593 35.969 35.7428 35.7772 35.8754 35.5334C36.0103 35.2872 36.0778 35.009 36.0778 34.6989C36.0778 34.3816 36.0079 34.0987 35.8683 33.8501C35.7309 33.5992 35.5415 33.4015 35.3001 33.2571C35.0586 33.1127 34.7828 33.0393 34.4727 33.0369C34.2501 33.0346 34.0217 33.0689 33.7873 33.1399C33.5529 33.2086 33.36 33.2973 33.2085 33.4062L32.3846 33.3068L32.8249 29.7273H36.6033V30.5085H33.5636L33.3079 32.6534H33.3505C33.4996 32.535 33.6867 32.4368 33.9116 32.3587C34.1365 32.2805 34.3709 32.2415 34.6147 32.2415C35.0598 32.2415 35.4563 32.348 35.8043 32.5611C36.1547 32.7718 36.4293 33.0606 36.6282 33.4276C36.8294 33.7945 36.93 34.2135 36.93 34.6847C36.93 35.1487 36.8259 35.563 36.6175 35.9276C36.4116 36.2898 36.1275 36.5762 35.7653 36.7869C35.4031 36.9953 34.9911 37.0994 34.5295 37.0994ZM40.6703 37.0994C40.1826 37.0994 39.7517 37.013 39.3777 36.8402C39.006 36.665 38.716 36.4247 38.5076 36.1193C38.2993 35.8116 38.1963 35.4612 38.1987 35.0682C38.1963 34.7604 38.2567 34.4763 38.3798 34.2159C38.5029 33.9531 38.671 33.7341 38.8841 33.5589C39.0995 33.3814 39.3398 33.2689 39.6049 33.2216V33.179C39.2569 33.089 38.9799 32.8937 38.774 32.593C38.568 32.29 38.4662 31.9455 38.4686 31.5597C38.4662 31.1903 38.5597 30.8601 38.7491 30.5689C38.9385 30.2777 39.1989 30.0481 39.5304 29.88C39.8642 29.7119 40.2441 29.6278 40.6703 29.6278C41.0917 29.6278 41.4681 29.7119 41.7995 29.88C42.131 30.0481 42.3914 30.2777 42.5808 30.5689C42.7725 30.8601 42.8696 31.1903 42.872 31.5597C42.8696 31.9455 42.7643 32.29 42.5559 32.593C42.35 32.8937 42.0765 33.089 41.7356 33.179V33.2216C41.9984 33.2689 42.2351 33.3814 42.4458 33.5589C42.6565 33.7341 42.8246 33.9531 42.9501 34.2159C43.0756 34.4763 43.1395 34.7604 43.1419 35.0682C43.1395 35.4612 43.033 35.8116 42.8223 36.1193C42.6139 36.4247 42.3239 36.665 41.9522 36.8402C41.5829 37.013 41.1556 37.0994 40.6703 37.0994ZM40.6703 36.3182C40.9993 36.3182 41.2834 36.2649 41.5225 36.1584C41.7617 36.0518 41.9463 35.9015 42.0765 35.7074C42.2067 35.5133 42.273 35.286 42.2754 35.0256C42.273 34.7509 42.202 34.5083 42.0623 34.2976C41.9226 34.0869 41.7321 33.9212 41.4906 33.8004C41.2515 33.6797 40.978 33.6193 40.6703 33.6193C40.3601 33.6193 40.0832 33.6797 39.8393 33.8004C39.5978 33.9212 39.4073 34.0869 39.2676 34.2976C39.1303 34.5083 39.0628 34.7509 39.0652 35.0256C39.0628 35.286 39.1255 35.5133 39.2534 35.7074C39.3836 35.9015 39.5694 36.0518 39.8109 36.1584C40.0524 36.2649 40.3388 36.3182 40.6703 36.3182ZM40.6703 32.8665C40.9307 32.8665 41.1615 32.8144 41.3627 32.7102C41.5663 32.6061 41.7261 32.4605 41.8422 32.2734C41.9582 32.0864 42.0173 31.8674 42.0197 31.6165C42.0173 31.3703 41.9593 31.156 41.8457 30.9737C41.7321 30.7891 41.5746 30.647 41.3734 30.5476C41.1722 30.4458 40.9378 30.3949 40.6703 30.3949C40.398 30.3949 40.1601 30.4458 39.9565 30.5476C39.7529 30.647 39.5955 30.7891 39.4842 30.9737C39.3729 31.156 39.3185 31.3703 39.3208 31.6165C39.3185 31.8674 39.3741 32.0864 39.4877 32.2734C39.6038 32.4605 39.7636 32.6061 39.9672 32.7102C40.1708 32.8144 40.4051 32.8665 40.6703 32.8665Z" fill="black"/>
<path d="M29.5777 5.79893C31.1235 5.75599 32.3418 4.46806 32.2989 2.92226C32.256 1.37646 30.968 0.158149 29.4222 0.201087L29.5777 5.79893ZM30 57L29.8818 59.7975C29.9434 59.8001 30.005 59.8007 30.0666 59.7992L30 57ZM39.9128 1.85296C38.4509 1.34885 36.8571 2.12531 36.353 3.58723C35.8488 5.04915 36.6253 6.64294 38.0872 7.14705L39.9128 1.85296ZM30.0666 59.7992C41.4832 59.5274 49.0117 54.4428 53.615 48.305C58.1234 42.2938 59.8 35.3218 59.8 31H54.2C54.2 34.1782 52.8766 39.9562 49.135 44.945C45.4883 49.8072 39.5168 53.9726 29.9334 54.2008L30.0666 59.7992ZM59.8 31C59.8 25.9363 58.8714 20.0502 55.8821 14.6973C52.8569 9.28003 47.8096 4.576 39.9128 1.85296L38.0872 7.14705C44.6904 9.42401 48.6431 13.22 50.9929 17.4277C53.3786 21.6998 54.2 26.5637 54.2 31H59.8ZM29.4222 0.201087C19.707 0.470954 12.2667 4.17747 7.3008 9.79373C2.37262 15.3674 0.0353029 22.6451 0.137774 29.8523C0.343298 44.3074 10.4403 58.976 29.8818 59.7975L30.1182 54.2025C14.0597 53.524 5.90669 41.6926 5.73721 29.7727C5.65218 23.7924 7.59611 17.9139 11.4961 13.5032C15.3583 9.13504 21.293 6.02906 29.5777 5.79893L29.4222 0.201087Z" fill="#008000"/>
</svg>
