<svg width="60" height="60" viewBox="0 0 60 60" fill="none" xmlns="http://www.w3.org/2000/svg">
<rect x="2.75" y="2.75" width="54.5" height="54.5" rx="27.25" fill="white" stroke="#D9D9D9" stroke-width="5.5"/>
<path d="M18.0504 22.3636L19.13 25.4247H19.1726L20.2521 22.3636H20.7138L19.3786 26H18.924L17.5888 22.3636H18.0504ZM21.772 26.0639C21.5992 26.0639 21.4424 26.0314 21.3015 25.9663C21.1606 25.9 21.0488 25.8047 20.9659 25.6804C20.883 25.5549 20.8416 25.4034 20.8416 25.2259C20.8416 25.0696 20.8724 24.9429 20.9339 24.8459C20.9955 24.7476 21.0778 24.6707 21.1808 24.6151C21.2837 24.5594 21.3974 24.518 21.5217 24.4908C21.6471 24.4624 21.7732 24.4399 21.8999 24.4233C22.0656 24.402 22.1999 24.386 22.3029 24.3754C22.4071 24.3635 22.4828 24.344 22.5302 24.3168C22.5787 24.2895 22.603 24.2422 22.603 24.1747V24.1605C22.603 23.9853 22.555 23.8492 22.4592 23.7521C22.3645 23.6551 22.2206 23.6065 22.0277 23.6065C21.8277 23.6065 21.6708 23.6503 21.5572 23.7379C21.4435 23.8255 21.3636 23.919 21.3175 24.0185L20.9197 23.8764C20.9908 23.7107 21.0855 23.5817 21.2038 23.4893C21.3234 23.3958 21.4536 23.3307 21.5945 23.294C21.7365 23.2562 21.8762 23.2372 22.0135 23.2372C22.1011 23.2372 22.2017 23.2479 22.3153 23.2692C22.4302 23.2893 22.5408 23.3313 22.6474 23.3952C22.7551 23.4592 22.8445 23.5556 22.9155 23.6847C22.9865 23.8137 23.022 23.9865 23.022 24.2031V26H22.603V25.6307H22.5817C22.5533 25.6899 22.5059 25.7532 22.4396 25.8207C22.3733 25.8881 22.2852 25.9455 22.1751 25.9929C22.065 26.0402 21.9306 26.0639 21.772 26.0639ZM21.8359 25.6875C22.0017 25.6875 22.1413 25.6549 22.255 25.5898C22.3698 25.5247 22.4562 25.4407 22.5142 25.3377C22.5734 25.2347 22.603 25.1264 22.603 25.0128V24.6293C22.5852 24.6506 22.5462 24.6701 22.4858 24.6879C22.4266 24.7044 22.358 24.7192 22.2798 24.7322C22.2029 24.7441 22.1277 24.7547 22.0543 24.7642C21.9821 24.7725 21.9235 24.7796 21.8786 24.7855C21.7696 24.7997 21.6679 24.8228 21.5732 24.8548C21.4796 24.8855 21.4039 24.9323 21.3459 24.995C21.2891 25.0566 21.2607 25.1406 21.2607 25.2472C21.2607 25.3928 21.3145 25.5028 21.4222 25.5774C21.5311 25.6508 21.669 25.6875 21.8359 25.6875ZM21.8501 22.9034L22.2834 22.0795H22.7734L22.2195 22.9034H21.8501ZM24.2059 22.3636V26H23.7868V22.3636H24.2059ZM24.9734 26V23.2727H25.3924V26H24.9734ZM25.1864 22.8182C25.1048 22.8182 25.0343 22.7904 24.9751 22.7347C24.9171 22.6791 24.8881 22.6122 24.8881 22.5341C24.8881 22.456 24.9171 22.3891 24.9751 22.3335C25.0343 22.2778 25.1048 22.25 25.1864 22.25C25.2681 22.25 25.3379 22.2778 25.396 22.3335C25.4551 22.3891 25.4847 22.456 25.4847 22.5341C25.4847 22.6122 25.4551 22.6791 25.396 22.7347C25.3379 22.7904 25.2681 22.8182 25.1864 22.8182ZM27.1897 26.0568C26.9624 26.0568 26.7618 25.9994 26.5878 25.8846C26.4138 25.7686 26.2777 25.6052 26.1794 25.3945C26.0812 25.1826 26.032 24.9323 26.032 24.6435C26.032 24.357 26.0812 24.1084 26.1794 23.8977C26.2777 23.687 26.4144 23.5243 26.5896 23.4094C26.7648 23.2946 26.9672 23.2372 27.1968 23.2372C27.3744 23.2372 27.5146 23.2668 27.6176 23.326C27.7218 23.384 27.8011 23.4503 27.8556 23.5249C27.9112 23.5982 27.9544 23.6586 27.9852 23.706H28.0207V22.3636H28.4397V26H28.0349V25.581H27.9852C27.9544 25.6307 27.9106 25.6934 27.8538 25.7692C27.797 25.8437 27.7159 25.9106 27.6105 25.9698C27.5052 26.0278 27.3649 26.0568 27.1897 26.0568ZM27.2465 25.6804C27.4146 25.6804 27.5567 25.6366 27.6727 25.549C27.7887 25.4602 27.8769 25.3377 27.9372 25.1815C27.9976 25.024 28.0278 24.8423 28.0278 24.6364C28.0278 24.4328 27.9982 24.2546 27.939 24.1019C27.8798 23.948 27.7922 23.8285 27.6762 23.7433C27.5602 23.6568 27.417 23.6136 27.2465 23.6136C27.069 23.6136 26.921 23.6592 26.8026 23.7504C26.6855 23.8403 26.5973 23.9628 26.5381 24.1179C26.4801 24.2718 26.4511 24.4446 26.4511 24.6364C26.4511 24.8305 26.4807 25.0069 26.5399 25.1655C26.6002 25.3229 26.689 25.4484 26.8062 25.5419C26.9246 25.6342 27.0713 25.6804 27.2465 25.6804ZM30.3733 26.0568C30.1271 26.0568 29.9111 25.9982 29.7252 25.881C29.5406 25.7638 29.3962 25.5999 29.292 25.3892C29.189 25.1785 29.1375 24.9323 29.1375 24.6506C29.1375 24.3665 29.189 24.1185 29.292 23.9066C29.3962 23.6947 29.5406 23.5302 29.7252 23.413C29.9111 23.2958 30.1271 23.2372 30.3733 23.2372C30.6195 23.2372 30.835 23.2958 31.0196 23.413C31.2055 23.5302 31.3499 23.6947 31.4529 23.9066C31.557 24.1185 31.6091 24.3665 31.6091 24.6506C31.6091 24.9323 31.557 25.1785 31.4529 25.3892C31.3499 25.5999 31.2055 25.7638 31.0196 25.881C30.835 25.9982 30.6195 26.0568 30.3733 26.0568ZM30.3733 25.6804C30.5603 25.6804 30.7142 25.6325 30.835 25.5366C30.9557 25.4407 31.0451 25.3146 31.1031 25.1584C31.1611 25.0021 31.1901 24.8329 31.1901 24.6506C31.1901 24.4683 31.1611 24.2984 31.1031 24.141C31.0451 23.9835 30.9557 23.8563 30.835 23.7592C30.7142 23.6622 30.5603 23.6136 30.3733 23.6136C30.1863 23.6136 30.0324 23.6622 29.9117 23.7592C29.7909 23.8563 29.7016 23.9835 29.6436 24.141C29.5856 24.2984 29.5566 24.4683 29.5566 24.6506C29.5566 24.8329 29.5856 25.0021 29.6436 25.1584C29.7016 25.3146 29.7909 25.4407 29.9117 25.5366C30.0324 25.6325 30.1863 25.6804 30.3733 25.6804ZM33.655 27.0227V23.2727H34.0598V23.706H34.1096C34.1403 23.6586 34.1829 23.5982 34.2374 23.5249C34.293 23.4503 34.3723 23.384 34.4753 23.326C34.5795 23.2668 34.7203 23.2372 34.8979 23.2372C35.1275 23.2372 35.33 23.2946 35.5051 23.4094C35.6803 23.5243 35.8171 23.687 35.9153 23.8977C36.0136 24.1084 36.0627 24.357 36.0627 24.6435C36.0627 24.9323 36.0136 25.1826 35.9153 25.3945C35.8171 25.6052 35.6809 25.7686 35.5069 25.8846C35.3329 25.9994 35.1323 26.0568 34.905 26.0568C34.7298 26.0568 34.5895 26.0278 34.4842 25.9698C34.3788 25.9106 34.2978 25.8437 34.2409 25.7692C34.1841 25.6934 34.1403 25.6307 34.1096 25.581H34.074V27.0227H33.655ZM34.0669 24.6364C34.0669 24.8423 34.0971 25.024 34.1575 25.1815C34.2179 25.3377 34.306 25.4602 34.4221 25.549C34.5381 25.6366 34.6801 25.6804 34.8482 25.6804C35.0234 25.6804 35.1696 25.6342 35.2868 25.5419C35.4051 25.4484 35.4939 25.3229 35.5531 25.1655C35.6135 25.0069 35.6436 24.8305 35.6436 24.6364C35.6436 24.4446 35.6141 24.2718 35.5549 24.1179C35.4969 23.9628 35.4087 23.8403 35.2903 23.7504C35.1731 23.6592 35.0257 23.6136 34.8482 23.6136C34.6777 23.6136 34.5345 23.6568 34.4185 23.7433C34.3025 23.8285 34.2149 23.948 34.1557 24.1019C34.0965 24.2546 34.0669 24.4328 34.0669 24.6364ZM37.8098 26.0568C37.5636 26.0568 37.3476 25.9982 37.1618 25.881C36.9771 25.7638 36.8327 25.5999 36.7285 25.3892C36.6255 25.1785 36.574 24.9323 36.574 24.6506C36.574 24.3665 36.6255 24.1185 36.7285 23.9066C36.8327 23.6947 36.9771 23.5302 37.1618 23.413C37.3476 23.2958 37.5636 23.2372 37.8098 23.2372C38.056 23.2372 38.2715 23.2958 38.4561 23.413C38.642 23.5302 38.7864 23.6947 38.8894 23.9066C38.9935 24.1185 39.0456 24.3665 39.0456 24.6506C39.0456 24.9323 38.9935 25.1785 38.8894 25.3892C38.7864 25.5999 38.642 25.7638 38.4561 25.881C38.2715 25.9982 38.056 26.0568 37.8098 26.0568ZM37.8098 25.6804C37.9969 25.6804 38.1507 25.6325 38.2715 25.5366C38.3922 25.4407 38.4816 25.3146 38.5396 25.1584C38.5976 25.0021 38.6266 24.8329 38.6266 24.6506C38.6266 24.4683 38.5976 24.2984 38.5396 24.141C38.4816 23.9835 38.3922 23.8563 38.2715 23.7592C38.1507 23.6622 37.9969 23.6136 37.8098 23.6136C37.6228 23.6136 37.4689 23.6622 37.3482 23.7592C37.2275 23.8563 37.1381 23.9835 37.0801 24.141C37.0221 24.2984 36.9931 24.4683 36.9931 24.6506C36.9931 24.8329 37.0221 25.0021 37.0801 25.1584C37.1381 25.3146 37.2275 25.4407 37.3482 25.5366C37.4689 25.6325 37.6228 25.6804 37.8098 25.6804ZM39.6853 26V23.2727H40.0901V23.6847H40.1185C40.1682 23.5497 40.2582 23.4402 40.3884 23.3562C40.5186 23.2721 40.6654 23.2301 40.8287 23.2301C40.8595 23.2301 40.898 23.2307 40.9442 23.2319C40.9903 23.2331 41.0252 23.2348 41.0489 23.2372V23.6634C41.0347 23.6598 41.0022 23.6545 40.9513 23.6474C40.9015 23.6391 40.8489 23.6349 40.7932 23.6349C40.6607 23.6349 40.5423 23.6628 40.4381 23.7184C40.3351 23.7728 40.2535 23.8486 40.1931 23.9457C40.1339 24.0415 40.1043 24.151 40.1043 24.2741V26H39.6853ZM41.851 26.0284C41.7634 26.0284 41.6883 25.997 41.6255 25.9343C41.5628 25.8716 41.5314 25.7964 41.5314 25.7088C41.5314 25.6212 41.5628 25.546 41.6255 25.4833C41.6883 25.4206 41.7634 25.3892 41.851 25.3892C41.9386 25.3892 42.0138 25.4206 42.0765 25.4833C42.1393 25.546 42.1706 25.6212 42.1706 25.7088C42.1706 25.7668 42.1558 25.8201 42.1262 25.8686C42.0978 25.9171 42.0594 25.9562 42.0108 25.9858C41.9635 26.0142 41.9102 26.0284 41.851 26.0284ZM41.851 24.0043C41.7634 24.0043 41.6883 23.9729 41.6255 23.9102C41.5628 23.8474 41.5314 23.7723 41.5314 23.6847C41.5314 23.5971 41.5628 23.5219 41.6255 23.4592C41.6883 23.3964 41.7634 23.3651 41.851 23.3651C41.9386 23.3651 42.0138 23.3964 42.0765 23.4592C42.1393 23.5219 42.1706 23.5971 42.1706 23.6847C42.1706 23.7427 42.1558 23.7959 42.1262 23.8445C42.0978 23.893 42.0594 23.9321 42.0108 23.9616C41.9635 23.9901 41.9102 24.0043 41.851 24.0043Z" fill="black"/>
<path d="M19.375 37.0994C18.84 37.0994 18.3842 36.9538 18.0078 36.6626C17.6314 36.3691 17.3438 35.9441 17.1449 35.3878C16.946 34.8291 16.8466 34.1544 16.8466 33.3636C16.8466 32.5777 16.946 31.9065 17.1449 31.3501C17.3461 30.7914 17.6349 30.3653 18.0114 30.0717C18.3902 29.7758 18.8447 29.6278 19.375 29.6278C19.9053 29.6278 20.3587 29.7758 20.7351 30.0717C21.1139 30.3653 21.4027 30.7914 21.6016 31.3501C21.8028 31.9065 21.9034 32.5777 21.9034 33.3636C21.9034 34.1544 21.804 34.8291 21.6051 35.3878C21.4062 35.9441 21.1186 36.3691 20.7422 36.6626C20.3658 36.9538 19.91 37.0994 19.375 37.0994ZM19.375 36.3182C19.9053 36.3182 20.3172 36.0625 20.6108 35.5511C20.9044 35.0398 21.0511 34.3106 21.0511 33.3636C21.0511 32.7339 20.9837 32.1977 20.8487 31.755C20.7161 31.3123 20.5244 30.9749 20.2734 30.7429C20.0249 30.5109 19.7254 30.3949 19.375 30.3949C18.8494 30.3949 18.4387 30.6541 18.1428 31.1726C17.8468 31.6887 17.6989 32.419 17.6989 33.3636C17.6989 33.9934 17.7652 34.5284 17.8977 34.9688C18.0303 35.4091 18.2209 35.7441 18.4695 35.9737C18.7204 36.2034 19.0223 36.3182 19.375 36.3182ZM25.625 37.0994C25.09 37.0994 24.6342 36.9538 24.2578 36.6626C23.8814 36.3691 23.5938 35.9441 23.3949 35.3878C23.196 34.8291 23.0966 34.1544 23.0966 33.3636C23.0966 32.5777 23.196 31.9065 23.3949 31.3501C23.5961 30.7914 23.8849 30.3653 24.2614 30.0717C24.6402 29.7758 25.0947 29.6278 25.625 29.6278C26.1553 29.6278 26.6087 29.7758 26.9851 30.0717C27.3639 30.3653 27.6527 30.7914 27.8516 31.3501C28.0528 31.9065 28.1534 32.5777 28.1534 33.3636C28.1534 34.1544 28.054 34.8291 27.8551 35.3878C27.6562 35.9441 27.3686 36.3691 26.9922 36.6626C26.6158 36.9538 26.16 37.0994 25.625 37.0994ZM25.625 36.3182C26.1553 36.3182 26.5672 36.0625 26.8608 35.5511C27.1544 35.0398 27.3011 34.3106 27.3011 33.3636C27.3011 32.7339 27.2337 32.1977 27.0987 31.755C26.9661 31.3123 26.7744 30.9749 26.5234 30.7429C26.2749 30.5109 25.9754 30.3949 25.625 30.3949C25.0994 30.3949 24.6887 30.6541 24.3928 31.1726C24.0968 31.6887 23.9489 32.419 23.9489 33.3636C23.9489 33.9934 24.0152 34.5284 24.1477 34.9688C24.2803 35.4091 24.4709 35.7441 24.7195 35.9737C24.9704 36.2034 25.2723 36.3182 25.625 36.3182ZM30.1278 36.0696C29.9527 36.0696 29.8023 36.0069 29.6768 35.8814C29.5514 35.7559 29.4886 35.6056 29.4886 35.4304C29.4886 35.2552 29.5514 35.1049 29.6768 34.9794C29.8023 34.8539 29.9527 34.7912 30.1278 34.7912C30.303 34.7912 30.4534 34.8539 30.5788 34.9794C30.7043 35.1049 30.767 35.2552 30.767 35.4304C30.767 35.5464 30.7375 35.6529 30.6783 35.75C30.6214 35.8471 30.5445 35.9252 30.4474 35.9844C30.3527 36.0412 30.2462 36.0696 30.1278 36.0696ZM30.1278 32.3906C29.9527 32.3906 29.8023 32.3279 29.6768 32.2024C29.5514 32.0769 29.4886 31.9266 29.4886 31.7514C29.4886 31.5762 29.5514 31.4259 29.6768 31.3004C29.8023 31.175 29.9527 31.1122 30.1278 31.1122C30.303 31.1122 30.4534 31.175 30.5788 31.3004C30.7043 31.4259 30.767 31.5762 30.767 31.7514C30.767 31.8674 30.7375 31.974 30.6783 32.071C30.6214 32.1681 30.5445 32.2462 30.4474 32.3054C30.3527 32.3622 30.2462 32.3906 30.1278 32.3906ZM34.5295 37.0994C34.1128 37.0994 33.7376 37.0166 33.4038 36.8509C33.07 36.6851 32.8024 36.4579 32.6012 36.169C32.4 35.8802 32.2899 35.5511 32.271 35.1818H33.1232C33.1564 35.5109 33.3055 35.7831 33.5707 35.9986C33.8382 36.2116 34.1578 36.3182 34.5295 36.3182C34.8278 36.3182 35.0929 36.2483 35.3249 36.1087C35.5593 35.969 35.7428 35.7772 35.8754 35.5334C36.0103 35.2872 36.0778 35.009 36.0778 34.6989C36.0778 34.3816 36.0079 34.0987 35.8683 33.8501C35.7309 33.5992 35.5415 33.4015 35.3001 33.2571C35.0586 33.1127 34.7828 33.0393 34.4727 33.0369C34.2501 33.0346 34.0217 33.0689 33.7873 33.1399C33.5529 33.2086 33.36 33.2973 33.2085 33.4062L32.3846 33.3068L32.8249 29.7273H36.6033V30.5085H33.5636L33.3079 32.6534H33.3505C33.4996 32.535 33.6867 32.4368 33.9116 32.3587C34.1365 32.2805 34.3709 32.2415 34.6147 32.2415C35.0598 32.2415 35.4563 32.348 35.8043 32.5611C36.1547 32.7718 36.4293 33.0606 36.6282 33.4276C36.8294 33.7945 36.93 34.2135 36.93 34.6847C36.93 35.1487 36.8259 35.563 36.6175 35.9276C36.4116 36.2898 36.1275 36.5762 35.7653 36.7869C35.4031 36.9953 34.9911 37.0994 34.5295 37.0994ZM40.6703 37.0994C40.1826 37.0994 39.7517 37.013 39.3777 36.8402C39.006 36.665 38.716 36.4247 38.5076 36.1193C38.2993 35.8116 38.1963 35.4612 38.1987 35.0682C38.1963 34.7604 38.2567 34.4763 38.3798 34.2159C38.5029 33.9531 38.671 33.7341 38.8841 33.5589C39.0995 33.3814 39.3398 33.2689 39.6049 33.2216V33.179C39.2569 33.089 38.9799 32.8937 38.774 32.593C38.568 32.29 38.4662 31.9455 38.4686 31.5597C38.4662 31.1903 38.5597 30.8601 38.7491 30.5689C38.9385 30.2777 39.1989 30.0481 39.5304 29.88C39.8642 29.7119 40.2441 29.6278 40.6703 29.6278C41.0917 29.6278 41.4681 29.7119 41.7995 29.88C42.131 30.0481 42.3914 30.2777 42.5808 30.5689C42.7725 30.8601 42.8696 31.1903 42.872 31.5597C42.8696 31.9455 42.7643 32.29 42.5559 32.593C42.35 32.8937 42.0765 33.089 41.7356 33.179V33.2216C41.9984 33.2689 42.2351 33.3814 42.4458 33.5589C42.6565 33.7341 42.8246 33.9531 42.9501 34.2159C43.0756 34.4763 43.1395 34.7604 43.1419 35.0682C43.1395 35.4612 43.033 35.8116 42.8223 36.1193C42.6139 36.4247 42.3239 36.665 41.9522 36.8402C41.5829 37.013 41.1556 37.0994 40.6703 37.0994ZM40.6703 36.3182C40.9993 36.3182 41.2834 36.2649 41.5225 36.1584C41.7617 36.0518 41.9463 35.9015 42.0765 35.7074C42.2067 35.5133 42.273 35.286 42.2754 35.0256C42.273 34.7509 42.202 34.5083 42.0623 34.2976C41.9226 34.0869 41.7321 33.9212 41.4906 33.8004C41.2515 33.6797 40.978 33.6193 40.6703 33.6193C40.3601 33.6193 40.0832 33.6797 39.8393 33.8004C39.5978 33.9212 39.4073 34.0869 39.2676 34.2976C39.1303 34.5083 39.0628 34.7509 39.0652 35.0256C39.0628 35.286 39.1255 35.5133 39.2534 35.7074C39.3836 35.9015 39.5694 36.0518 39.8109 36.1584C40.0524 36.2649 40.3388 36.3182 40.6703 36.3182ZM40.6703 32.8665C40.9307 32.8665 41.1615 32.8144 41.3627 32.7102C41.5663 32.6061 41.7261 32.4605 41.8422 32.2734C41.9582 32.0864 42.0173 31.8674 42.0197 31.6165C42.0173 31.3703 41.9593 31.156 41.8457 30.9737C41.7321 30.7891 41.5746 30.647 41.3734 30.5476C41.1722 30.4458 40.9378 30.3949 40.6703 30.3949C40.398 30.3949 40.1601 30.4458 39.9565 30.5476C39.7529 30.647 39.5955 30.7891 39.4842 30.9737C39.3729 31.156 39.3185 31.3703 39.3208 31.6165C39.3185 31.8674 39.3741 32.0864 39.4877 32.2734C39.6038 32.4605 39.7636 32.6061 39.9672 32.7102C40.1708 32.8144 40.4051 32.8665 40.6703 32.8665Z" fill="black"/>
<path d="M29.5777 5.79893C31.1235 5.75599 32.3418 4.46806 32.2989 2.92226C32.256 1.37646 30.968 0.158149 29.4222 0.201087L29.5777 5.79893ZM30 57L29.8818 59.7975C29.9434 59.8001 30.005 59.8007 30.0666 59.7992L30 57ZM39.9128 1.85296C38.4509 1.34885 36.8571 2.12531 36.353 3.58723C35.8488 5.04915 36.6253 6.64294 38.0872 7.14705L39.9128 1.85296ZM30.0666 59.7992C41.4832 59.5274 49.0117 54.4428 53.615 48.305C58.1234 42.2938 59.8 35.3218 59.8 31H54.2C54.2 34.1782 52.8766 39.9562 49.135 44.945C45.4883 49.8072 39.5168 53.9726 29.9334 54.2008L30.0666 59.7992ZM59.8 31C59.8 25.9363 58.8714 20.0502 55.8821 14.6973C52.8569 9.28003 47.8096 4.576 39.9128 1.85296L38.0872 7.14705C44.6904 9.42401 48.6431 13.22 50.9929 17.4277C53.3786 21.6998 54.2 26.5637 54.2 31H59.8ZM29.4222 0.201087C19.707 0.470954 12.2667 4.17747 7.3008 9.79373C2.37262 15.3674 0.0353029 22.6451 0.137774 29.8523C0.343298 44.3074 10.4403 58.976 29.8818 59.7975L30.1182 54.2025C14.0597 53.524 5.90669 41.6926 5.73721 29.7727C5.65218 23.7924 7.59611 17.9139 11.4961 13.5032C15.3583 9.13504 21.293 6.02906 29.5777 5.79893L29.4222 0.201087Z" fill="#008000"/>
</svg>
