<svg width="83" height="83" viewBox="0 0 83 83" fill="none" xmlns="http://www.w3.org/2000/svg">
<path d="M30.0345 0.551724H26.7586V3.82759H30.0345V0.551724Z" fill="black"/>
<path d="M43.1379 0.551724H39.8621V3.82759H43.1379V0.551724Z" fill="black"/>
<path d="M49.6897 0.551724H46.4138V3.82759H49.6897V0.551724Z" fill="black"/>
<path d="M56.2414 0.551724H52.9655V3.82759H56.2414V0.551724Z" fill="black"/>
<path d="M30.0345 3.82759H26.7586V7.10345H30.0345V3.82759Z" fill="black"/>
<path d="M36.5862 3.82759H33.3103V7.10345H36.5862V3.82759Z" fill="black"/>
<path d="M46.4138 3.82759H43.1379V7.10345H46.4138V3.82759Z" fill="black"/>
<path d="M49.6897 3.82759H46.4138V7.10345H49.6897V3.82759Z" fill="black"/>
<path d="M56.2414 3.82759H52.9655V7.10345H56.2414V3.82759Z" fill="black"/>
<path d="M39.8621 7.10345H36.5862V10.3793H39.8621V7.10345Z" fill="black"/>
<path d="M43.1379 7.10345H39.8621V10.3793H43.1379V7.10345Z" fill="black"/>
<path d="M46.4138 7.10345H43.1379V10.3793H46.4138V7.10345Z" fill="black"/>
<path d="M49.6897 7.10345H46.4138V10.3793H49.6897V7.10345Z" fill="black"/>
<path d="M56.2414 7.10345H52.9655V10.3793H56.2414V7.10345Z" fill="black"/>
<path d="M30.0345 10.3793H26.7586V13.6552H30.0345V10.3793Z" fill="black"/>
<path d="M33.3103 10.3793H30.0345V13.6552H33.3103V10.3793Z" fill="black"/>
<path d="M46.4138 10.3793H43.1379V13.6552H46.4138V10.3793Z" fill="black"/>
<path d="M56.2414 10.3793H52.9655V13.6552H56.2414V10.3793Z" fill="black"/>
<path d="M36.5862 13.6552H33.3103V16.931H36.5862V13.6552Z" fill="black"/>
<path d="M39.8621 13.6552H36.5862V16.931H39.8621V13.6552Z" fill="black"/>
<path d="M46.4138 13.6552H43.1379V16.931H46.4138V13.6552Z" fill="black"/>
<path d="M49.6897 13.6552H46.4138V16.931H49.6897V13.6552Z" fill="black"/>
<path d="M52.9655 13.6552H49.6897V16.931H52.9655V13.6552Z" fill="black"/>
<path d="M56.2414 13.6552H52.9655V16.931H56.2414V13.6552Z" fill="black"/>
<path d="M33.3103 16.931H30.0345V20.2069H33.3103V16.931Z" fill="black"/>
<path d="M36.5862 16.931H33.3103V20.2069H36.5862V16.931Z" fill="black"/>
<path d="M39.8621 16.931H36.5862V20.2069H39.8621V16.931Z" fill="black"/>
<path d="M49.6897 16.931H46.4138V20.2069H49.6897V16.931Z" fill="black"/>
<path d="M30.0345 20.2069H26.7586V23.4828H30.0345V20.2069Z" fill="black"/>
<path d="M36.5862 20.2069H33.3103V23.4828H36.5862V20.2069Z" fill="black"/>
<path d="M43.1379 20.2069H39.8621V23.4828H43.1379V20.2069Z" fill="black"/>
<path d="M49.6897 20.2069H46.4138V23.4828H49.6897V20.2069Z" fill="black"/>
<path d="M56.2414 20.2069H52.9655V23.4828H56.2414V20.2069Z" fill="black"/>
<path d="M30.0345 23.4828H26.7586V26.7586H30.0345V23.4828Z" fill="black"/>
<path d="M49.6897 23.4828H46.4138V26.7586H49.6897V23.4828Z" fill="black"/>
<path d="M52.9655 23.4828H49.6897V26.7586H52.9655V23.4828Z" fill="black"/>
<path d="M3.82759 26.7586H0.551727V30.0345H3.82759V26.7586Z" fill="black"/>
<path d="M10.3793 26.7586H7.10345V30.0345H10.3793V26.7586Z" fill="black"/>
<path d="M13.6552 26.7586H10.3793V30.0345H13.6552V26.7586Z" fill="black"/>
<path d="M20.2069 26.7586H16.931V30.0345H20.2069V26.7586Z" fill="black"/>
<path d="M23.4828 26.7586H20.2069V30.0345H23.4828V26.7586Z" fill="black"/>
<path d="M26.7586 26.7586H23.4828V30.0345H26.7586V26.7586Z" fill="black"/>
<path d="M36.5862 26.7586H33.3103V30.0345H36.5862V26.7586Z" fill="black"/>
<path d="M39.8621 26.7586H36.5862V30.0345H39.8621V26.7586Z" fill="black"/>
<path d="M49.6897 26.7586H46.4138V30.0345H49.6897V26.7586Z" fill="black"/>
<path d="M62.7931 26.7586H59.5172V30.0345H62.7931V26.7586Z" fill="black"/>
<path d="M72.6207 26.7586H69.3448V30.0345H72.6207V26.7586Z" fill="black"/>
<path d="M79.1724 26.7586H75.8965V30.0345H79.1724V26.7586Z" fill="black"/>
<path d="M82.4483 26.7586H79.1724V30.0345H82.4483V26.7586Z" fill="black"/>
<path d="M3.82759 30.0345H0.551727V33.3103H3.82759V30.0345Z" fill="black"/>
<path d="M36.5862 30.0345H33.3103V33.3103H36.5862V30.0345Z" fill="black"/>
<path d="M43.1379 30.0345H39.8621V33.3103H43.1379V30.0345Z" fill="black"/>
<path d="M56.2414 30.0345H52.9655V33.3103H56.2414V30.0345Z" fill="black"/>
<path d="M59.5172 30.0345H56.2414V33.3103H59.5172V30.0345Z" fill="black"/>
<path d="M66.069 30.0345H62.7931V33.3103H66.069V30.0345Z" fill="black"/>
<path d="M79.1724 30.0345H75.8965V33.3103H79.1724V30.0345Z" fill="black"/>
<path d="M3.82759 33.3103H0.551727V36.5862H3.82759V33.3103Z" fill="black"/>
<path d="M7.10345 33.3103H3.82759V36.5862H7.10345V33.3103Z" fill="black"/>
<path d="M23.4828 33.3103H20.2069V36.5862H23.4828V33.3103Z" fill="black"/>
<path d="M30.0345 33.3103H26.7586V36.5862H30.0345V33.3103Z" fill="black"/>
<path d="M33.3103 33.3103H30.0345V36.5862H33.3103V33.3103Z" fill="black"/>
<path d="M36.5862 33.3103H33.3103V36.5862H36.5862V33.3103Z" fill="black"/>
<path d="M46.4138 33.3103H43.1379V36.5862H46.4138V33.3103Z" fill="black"/>
<path d="M49.6897 33.3103H46.4138V36.5862H49.6897V33.3103Z" fill="black"/>
<path d="M56.2414 33.3103H52.9655V36.5862H56.2414V33.3103Z" fill="black"/>
<path d="M66.069 33.3103H62.7931V36.5862H66.069V33.3103Z" fill="black"/>
<path d="M69.3448 33.3103H66.069V36.5862H69.3448V33.3103Z" fill="black"/>
<path d="M10.3793 36.5862H7.10345V39.8621H10.3793V36.5862Z" fill="black"/>
<path d="M13.6552 36.5862H10.3793V39.8621H13.6552V36.5862Z" fill="black"/>
<path d="M16.931 36.5862H13.6552V39.8621H16.931V36.5862Z" fill="black"/>
<path d="M30.0345 36.5862H26.7586V39.8621H30.0345V36.5862Z" fill="black"/>
<path d="M36.5862 36.5862H33.3103V39.8621H36.5862V36.5862Z" fill="black"/>
<path d="M46.4138 36.5862H43.1379V39.8621H46.4138V36.5862Z" fill="black"/>
<path d="M49.6897 36.5862H46.4138V39.8621H49.6897V36.5862Z" fill="black"/>
<path d="M56.2414 36.5862H52.9655V39.8621H56.2414V36.5862Z" fill="black"/>
<path d="M59.5172 36.5862H56.2414V39.8621H59.5172V36.5862Z" fill="black"/>
<path d="M66.069 36.5862H62.7931V39.8621H66.069V36.5862Z" fill="black"/>
<path d="M72.6207 36.5862H69.3448V39.8621H72.6207V36.5862Z" fill="black"/>
<path d="M75.8966 36.5862H72.6207V39.8621H75.8966V36.5862Z" fill="black"/>
<path d="M3.82759 39.8621H0.551727V43.1379H3.82759V39.8621Z" fill="black"/>
<path d="M16.931 39.8621H13.6552V43.1379H16.931V39.8621Z" fill="black"/>
<path d="M23.4828 39.8621H20.2069V43.1379H23.4828V39.8621Z" fill="black"/>
<path d="M26.7586 39.8621H23.4828V43.1379H26.7586V39.8621Z" fill="black"/>
<path d="M30.0345 39.8621H26.7586V43.1379H30.0345V39.8621Z" fill="black"/>
<path d="M43.1379 39.8621H39.8621V43.1379H43.1379V39.8621Z" fill="black"/>
<path d="M46.4138 39.8621H43.1379V43.1379H46.4138V39.8621Z" fill="black"/>
<path d="M49.6897 39.8621H46.4138V43.1379H49.6897V39.8621Z" fill="black"/>
<path d="M56.2414 39.8621H52.9655V43.1379H56.2414V39.8621Z" fill="black"/>
<path d="M59.5172 39.8621H56.2414V43.1379H59.5172V39.8621Z" fill="black"/>
<path d="M62.7931 39.8621H59.5172V43.1379H62.7931V39.8621Z" fill="black"/>
<path d="M66.069 39.8621H62.7931V43.1379H66.069V39.8621Z" fill="black"/>
<path d="M69.3448 39.8621H66.069V43.1379H69.3448V39.8621Z" fill="black"/>
<path d="M75.8966 39.8621H72.6207V43.1379H75.8966V39.8621Z" fill="black"/>
<path d="M79.1724 39.8621H75.8965V43.1379H79.1724V39.8621Z" fill="black"/>
<path d="M82.4483 39.8621H79.1724V43.1379H82.4483V39.8621Z" fill="black"/>
<path d="M10.3793 43.1379H7.10345V46.4138H10.3793V43.1379Z" fill="black"/>
<path d="M20.2069 43.1379H16.931V46.4138H20.2069V43.1379Z" fill="black"/>
<path d="M26.7586 43.1379H23.4828V46.4138H26.7586V43.1379Z" fill="black"/>
<path d="M39.8621 43.1379H36.5862V46.4138H39.8621V43.1379Z" fill="black"/>
<path d="M46.4138 43.1379H43.1379V46.4138H46.4138V43.1379Z" fill="black"/>
<path d="M49.6897 43.1379H46.4138V46.4138H49.6897V43.1379Z" fill="black"/>
<path d="M52.9655 43.1379H49.6897V46.4138H52.9655V43.1379Z" fill="black"/>
<path d="M56.2414 43.1379H52.9655V46.4138H56.2414V43.1379Z" fill="black"/>
<path d="M59.5172 43.1379H56.2414V46.4138H59.5172V43.1379Z" fill="black"/>
<path d="M62.7931 43.1379H59.5172V46.4138H62.7931V43.1379Z" fill="black"/>
<path d="M66.069 43.1379H62.7931V46.4138H66.069V43.1379Z" fill="black"/>
<path d="M69.3448 43.1379H66.069V46.4138H69.3448V43.1379Z" fill="black"/>
<path d="M82.4483 43.1379H79.1724V46.4138H82.4483V43.1379Z" fill="black"/>
<path d="M7.10345 46.4138H3.82759V49.6897H7.10345V46.4138Z" fill="black"/>
<path d="M10.3793 46.4138H7.10345V49.6897H10.3793V46.4138Z" fill="black"/>
<path d="M13.6552 46.4138H10.3793V49.6897H13.6552V46.4138Z" fill="black"/>
<path d="M20.2069 46.4138H16.931V49.6897H20.2069V46.4138Z" fill="black"/>
<path d="M23.4828 46.4138H20.2069V49.6897H23.4828V46.4138Z" fill="black"/>
<path d="M30.0345 46.4138H26.7586V49.6897H30.0345V46.4138Z" fill="black"/>
<path d="M33.3103 46.4138H30.0345V49.6897H33.3103V46.4138Z" fill="black"/>
<path d="M36.5862 46.4138H33.3103V49.6897H36.5862V46.4138Z" fill="black"/>
<path d="M43.1379 46.4138H39.8621V49.6897H43.1379V46.4138Z" fill="black"/>
<path d="M49.6897 46.4138H46.4138V49.6897H49.6897V46.4138Z" fill="black"/>
<path d="M56.2414 46.4138H52.9655V49.6897H56.2414V46.4138Z" fill="black"/>
<path d="M69.3448 46.4138H66.069V49.6897H69.3448V46.4138Z" fill="black"/>
<path d="M75.8966 46.4138H72.6207V49.6897H75.8966V46.4138Z" fill="black"/>
<path d="M79.1724 46.4138H75.8965V49.6897H79.1724V46.4138Z" fill="black"/>
<path d="M3.82759 49.6897H0.551727V52.9655H3.82759V49.6897Z" fill="black"/>
<path d="M16.931 49.6897H13.6552V52.9655H16.931V49.6897Z" fill="black"/>
<path d="M26.7586 49.6897H23.4828V52.9655H26.7586V49.6897Z" fill="black"/>
<path d="M33.3103 49.6897H30.0345V52.9655H33.3103V49.6897Z" fill="black"/>
<path d="M36.5862 49.6897H33.3103V52.9655H36.5862V49.6897Z" fill="black"/>
<path d="M39.8621 49.6897H36.5862V52.9655H39.8621V49.6897Z" fill="black"/>
<path d="M49.6897 49.6897H46.4138V52.9655H49.6897V49.6897Z" fill="black"/>
<path d="M52.9655 49.6897H49.6897V52.9655H52.9655V49.6897Z" fill="black"/>
<path d="M56.2414 49.6897H52.9655V52.9655H56.2414V49.6897Z" fill="black"/>
<path d="M59.5172 49.6897H56.2414V52.9655H59.5172V49.6897Z" fill="black"/>
<path d="M62.7931 49.6897H59.5172V52.9655H62.7931V49.6897Z" fill="black"/>
<path d="M66.069 49.6897H62.7931V52.9655H66.069V49.6897Z" fill="black"/>
<path d="M69.3448 49.6897H66.069V52.9655H69.3448V49.6897Z" fill="black"/>
<path d="M82.4483 49.6897H79.1724V52.9655H82.4483V49.6897Z" fill="black"/>
<path d="M10.3793 52.9655H7.10345V56.2414H10.3793V52.9655Z" fill="black"/>
<path d="M13.6552 52.9655H10.3793V56.2414H13.6552V52.9655Z" fill="black"/>
<path d="M16.931 52.9655H13.6552V56.2414H16.931V52.9655Z" fill="black"/>
<path d="M23.4828 52.9655H20.2069V56.2414H23.4828V52.9655Z" fill="black"/>
<path d="M30.0345 52.9655H26.7586V56.2414H30.0345V52.9655Z" fill="black"/>
<path d="M33.3103 52.9655H30.0345V56.2414H33.3103V52.9655Z" fill="black"/>
<path d="M46.4138 52.9655H43.1379V56.2414H46.4138V52.9655Z" fill="black"/>
<path d="M56.2414 52.9655H52.9655V56.2414H56.2414V52.9655Z" fill="black"/>
<path d="M59.5172 52.9655H56.2414V56.2414H59.5172V52.9655Z" fill="black"/>
<path d="M62.7931 52.9655H59.5172V56.2414H62.7931V52.9655Z" fill="black"/>
<path d="M66.069 52.9655H62.7931V56.2414H66.069V52.9655Z" fill="black"/>
<path d="M69.3448 52.9655H66.069V56.2414H69.3448V52.9655Z" fill="black"/>
<path d="M72.6207 52.9655H69.3448V56.2414H72.6207V52.9655Z" fill="black"/>
<path d="M75.8966 52.9655H72.6207V56.2414H75.8966V52.9655Z" fill="black"/>
<path d="M79.1724 52.9655H75.8965V56.2414H79.1724V52.9655Z" fill="black"/>
<path d="M82.4483 52.9655H79.1724V56.2414H82.4483V52.9655Z" fill="black"/>
<path d="M30.0345 56.2414H26.7586V59.5172H30.0345V56.2414Z" fill="black"/>
<path d="M33.3103 56.2414H30.0345V59.5172H33.3103V56.2414Z" fill="black"/>
<path d="M36.5862 56.2414H33.3103V59.5172H36.5862V56.2414Z" fill="black"/>
<path d="M39.8621 56.2414H36.5862V59.5172H39.8621V56.2414Z" fill="black"/>
<path d="M52.9655 56.2414H49.6897V59.5172H52.9655V56.2414Z" fill="black"/>
<path d="M56.2414 56.2414H52.9655V59.5172H56.2414V56.2414Z" fill="black"/>
<path d="M69.3448 56.2414H66.069V59.5172H69.3448V56.2414Z" fill="black"/>
<path d="M75.8966 56.2414H72.6207V59.5172H75.8966V56.2414Z" fill="black"/>
<path d="M82.4483 56.2414H79.1724V59.5172H82.4483V56.2414Z" fill="black"/>
<path d="M30.0345 59.5172H26.7586V62.7931H30.0345V59.5172Z" fill="black"/>
<path d="M33.3103 59.5172H30.0345V62.7931H33.3103V59.5172Z" fill="black"/>
<path d="M36.5862 59.5172H33.3103V62.7931H36.5862V59.5172Z" fill="black"/>
<path d="M43.1379 59.5172H39.8621V62.7931H43.1379V59.5172Z" fill="black"/>
<path d="M49.6897 59.5172H46.4138V62.7931H49.6897V59.5172Z" fill="black"/>
<path d="M56.2414 59.5172H52.9655V62.7931H56.2414V59.5172Z" fill="black"/>
<path d="M62.7931 59.5172H59.5172V62.7931H62.7931V59.5172Z" fill="black"/>
<path d="M69.3448 59.5172H66.069V62.7931H69.3448V59.5172Z" fill="black"/>
<path d="M75.8966 59.5172H72.6207V62.7931H75.8966V59.5172Z" fill="black"/>
<path d="M79.1724 59.5172H75.8965V62.7931H79.1724V59.5172Z" fill="black"/>
<path d="M82.4483 59.5172H79.1724V62.7931H82.4483V59.5172Z" fill="black"/>
<path d="M30.0345 62.7931H26.7586V66.069H30.0345V62.7931Z" fill="black"/>
<path d="M36.5862 62.7931H33.3103V66.069H36.5862V62.7931Z" fill="black"/>
<path d="M52.9655 62.7931H49.6897V66.069H52.9655V62.7931Z" fill="black"/>
<path d="M56.2414 62.7931H52.9655V66.069H56.2414V62.7931Z" fill="black"/>
<path d="M69.3448 62.7931H66.069V66.069H69.3448V62.7931Z" fill="black"/>
<path d="M79.1724 62.7931H75.8965V66.069H79.1724V62.7931Z" fill="black"/>
<path d="M82.4483 62.7931H79.1724V66.069H82.4483V62.7931Z" fill="black"/>
<path d="M43.1379 66.069H39.8621V69.3448H43.1379V66.069Z" fill="black"/>
<path d="M56.2414 66.069H52.9655V69.3448H56.2414V66.069Z" fill="black"/>
<path d="M59.5172 66.069H56.2414V69.3448H59.5172V66.069Z" fill="black"/>
<path d="M62.7931 66.069H59.5172V69.3448H62.7931V66.069Z" fill="black"/>
<path d="M66.069 66.069H62.7931V69.3448H66.069V66.069Z" fill="black"/>
<path d="M69.3448 66.069H66.069V69.3448H69.3448V66.069Z" fill="black"/>
<path d="M72.6207 66.069H69.3448V69.3448H72.6207V66.069Z" fill="black"/>
<path d="M82.4483 66.069H79.1724V69.3448H82.4483V66.069Z" fill="black"/>
<path d="M30.0345 69.3448H26.7586V72.6207H30.0345V69.3448Z" fill="black"/>
<path d="M39.8621 69.3448H36.5862V72.6207H39.8621V69.3448Z" fill="black"/>
<path d="M46.4138 69.3448H43.1379V72.6207H46.4138V69.3448Z" fill="black"/>
<path d="M59.5172 69.3448H56.2414V72.6207H59.5172V69.3448Z" fill="black"/>
<path d="M62.7931 69.3448H59.5172V72.6207H62.7931V69.3448Z" fill="black"/>
<path d="M69.3448 69.3448H66.069V72.6207H69.3448V69.3448Z" fill="black"/>
<path d="M72.6207 69.3448H69.3448V72.6207H72.6207V69.3448Z" fill="black"/>
<path d="M75.8966 69.3448H72.6207V72.6207H75.8966V69.3448Z" fill="black"/>
<path d="M79.1724 69.3448H75.8965V72.6207H79.1724V69.3448Z" fill="black"/>
<path d="M82.4483 69.3448H79.1724V72.6207H82.4483V69.3448Z" fill="black"/>
<path d="M30.0345 72.6207H26.7586V75.8966H30.0345V72.6207Z" fill="black"/>
<path d="M36.5862 72.6207H33.3103V75.8966H36.5862V72.6207Z" fill="black"/>
<path d="M39.8621 72.6207H36.5862V75.8966H39.8621V72.6207Z" fill="black"/>
<path d="M46.4138 72.6207H43.1379V75.8966H46.4138V72.6207Z" fill="black"/>
<path d="M56.2414 72.6207H52.9655V75.8966H56.2414V72.6207Z" fill="black"/>
<path d="M59.5172 72.6207H56.2414V75.8966H59.5172V72.6207Z" fill="black"/>
<path d="M62.7931 72.6207H59.5172V75.8966H62.7931V72.6207Z" fill="black"/>
<path d="M69.3448 72.6207H66.069V75.8966H69.3448V72.6207Z" fill="black"/>
<path d="M75.8966 72.6207H72.6207V75.8966H75.8966V72.6207Z" fill="black"/>
<path d="M79.1724 72.6207H75.8965V75.8966H79.1724V72.6207Z" fill="black"/>
<path d="M33.3103 75.8966H30.0345V79.1724H33.3103V75.8966Z" fill="black"/>
<path d="M39.8621 75.8966H36.5862V79.1724H39.8621V75.8966Z" fill="black"/>
<path d="M46.4138 75.8966H43.1379V79.1724H46.4138V75.8966Z" fill="black"/>
<path d="M59.5172 75.8966H56.2414V79.1724H59.5172V75.8966Z" fill="black"/>
<path d="M62.7931 75.8966H59.5172V79.1724H62.7931V75.8966Z" fill="black"/>
<path d="M69.3448 75.8966H66.069V79.1724H69.3448V75.8966Z" fill="black"/>
<path d="M75.8966 75.8966H72.6207V79.1724H75.8966V75.8966Z" fill="black"/>
<path d="M30.0345 79.1724H26.7586V82.4483H30.0345V79.1724Z" fill="black"/>
<path d="M43.1379 79.1724H39.8621V82.4483H43.1379V79.1724Z" fill="black"/>
<path d="M46.4138 79.1724H43.1379V82.4483H46.4138V79.1724Z" fill="black"/>
<path d="M49.6897 79.1724H46.4138V82.4483H49.6897V79.1724Z" fill="black"/>
<path d="M62.7931 79.1724H59.5172V82.4483H62.7931V79.1724Z" fill="black"/>
<path d="M66.069 79.1724H62.7931V82.4483H66.069V79.1724Z" fill="black"/>
<path d="M69.3448 79.1724H66.069V82.4483H69.3448V79.1724Z" fill="black"/>
<path d="M72.6207 79.1724H69.3448V82.4483H72.6207V79.1724Z" fill="black"/>
<path d="M75.8966 79.1724H72.6207V82.4483H75.8966V79.1724Z" fill="black"/>
<path d="M79.1724 79.1724H75.8965V82.4483H79.1724V79.1724Z" fill="black"/>
<path d="M82.4483 79.1724H79.1724V82.4483H82.4483V79.1724Z" fill="black"/>
<path d="M20.0431 0.551724H3.99138H0.551727V3.99138V20.0431V23.4828H3.99138H20.0431H23.4828V20.0431V3.99138V0.551724H20.0431ZM20.0431 20.0431H3.99138V3.99138H20.0431V20.0431Z" fill="black"/>
<path d="M79.0086 0.551724H62.9569H59.5172V3.99138V20.0431V23.4828H62.9569H79.0086H82.4483V20.0431V3.99138V0.551724H79.0086ZM79.0086 20.0431H62.9569V3.99138H79.0086V20.0431Z" fill="black"/>
<path d="M20.0431 59.5172H3.99138H0.551727V62.9569V79.0086V82.4483H3.99138H20.0431H23.4828V79.0086V62.9569V59.5172H20.0431ZM20.0431 79.0086H3.99138V62.9569H20.0431V79.0086Z" fill="black"/>
<path d="M16.931 7.10345H7.10345V16.931H16.931V7.10345Z" fill="black"/>
<path d="M75.8966 7.10345H66.069V16.931H75.8966V7.10345Z" fill="black"/>
<path d="M16.931 66.069H7.10345V75.8965H16.931V66.069Z" fill="black"/>
</svg>
