<svg width="403" height="399" viewBox="0 0 403 399" fill="none" xmlns="http://www.w3.org/2000/svg">
<path d="M5 4.5V391C5 392.657 6.34315 394 8 394H395.5C397.157 394 398.5 392.657 398.5 391V7.5C398.5 5.84314 397.157 4.5 395.5 4.5H242" stroke="#248C13" stroke-width="9" stroke-linecap="round"/>
<path d="M155.757 31.2733H142.258V44.7715H155.757V31.2733Z" fill="black"/>
<path d="M209.749 31.2733H196.251V44.7715H209.749V31.2733Z" fill="black"/>
<path d="M236.746 31.2733H223.247V44.7715H236.746V31.2733Z" fill="black"/>
<path d="M263.742 31.2733H250.243V44.7715H263.742V31.2733Z" fill="black"/>
<path d="M155.757 44.7715H142.258V58.2696H155.757V44.7715Z" fill="black"/>
<path d="M182.753 44.7715H169.254V58.2696H182.753V44.7715Z" fill="black"/>
<path d="M223.247 44.7715H209.749V58.2696H223.247V44.7715Z" fill="black"/>
<path d="M236.746 44.7715H223.247V58.2696H236.746V44.7715Z" fill="black"/>
<path d="M263.742 44.7715H250.243V58.2696H263.742V44.7715Z" fill="black"/>
<path d="M196.251 58.2697H182.753V71.7677H196.251V58.2697Z" fill="black"/>
<path d="M209.749 58.2697H196.251V71.7677H209.749V58.2697Z" fill="black"/>
<path d="M223.247 58.2697H209.749V71.7677H223.247V58.2697Z" fill="black"/>
<path d="M236.746 58.2697H223.247V71.7677H236.746V58.2697Z" fill="black"/>
<path d="M263.742 58.2697H250.243V71.7677H263.742V58.2697Z" fill="black"/>
<path d="M155.757 71.7677H142.258V85.266H155.757V71.7677Z" fill="black"/>
<path d="M169.254 71.7677H155.757V85.266H169.254V71.7677Z" fill="black"/>
<path d="M223.247 71.7677H209.749V85.266H223.247V71.7677Z" fill="black"/>
<path d="M263.742 71.7677H250.243V85.266H263.742V71.7677Z" fill="black"/>
<path d="M182.753 85.266H169.254V98.7639H182.753V85.266Z" fill="black"/>
<path d="M196.251 85.266H182.753V98.7639H196.251V85.266Z" fill="black"/>
<path d="M223.247 85.266H209.749V98.7639H223.247V85.266Z" fill="black"/>
<path d="M236.746 85.266H223.247V98.7639H236.746V85.266Z" fill="black"/>
<path d="M250.243 85.266H236.746V98.7639H250.243V85.266Z" fill="black"/>
<path d="M263.742 85.266H250.243V98.7639H263.742V85.266Z" fill="black"/>
<path d="M169.254 98.7639H155.757V112.262H169.254V98.7639Z" fill="black"/>
<path d="M182.753 98.7639H169.254V112.262H182.753V98.7639Z" fill="black"/>
<path d="M196.251 98.7639H182.753V112.262H196.251V98.7639Z" fill="black"/>
<path d="M236.746 98.7639H223.247V112.262H236.746V98.7639Z" fill="black"/>
<path d="M155.757 112.262H142.258V125.76H155.757V112.262Z" fill="black"/>
<path d="M182.753 112.262H169.254V125.76H182.753V112.262Z" fill="black"/>
<path d="M209.749 112.262H196.251V125.76H209.749V112.262Z" fill="black"/>
<path d="M236.746 112.262H223.247V125.76H236.746V112.262Z" fill="black"/>
<path d="M263.742 112.262H250.243V125.76H263.742V112.262Z" fill="black"/>
<path d="M155.757 125.76H142.258V139.258H155.757V125.76Z" fill="black"/>
<path d="M236.746 125.76H223.247V139.258H236.746V125.76Z" fill="black"/>
<path d="M250.243 125.76H236.746V139.258H250.243V125.76Z" fill="black"/>
<path d="M47.7715 139.258H34.2734V152.757H47.7715V139.258Z" fill="black"/>
<path d="M74.7677 139.258H61.2696V152.757H74.7677V139.258Z" fill="black"/>
<path d="M88.266 139.258H74.7677V152.757H88.266V139.258Z" fill="black"/>
<path d="M115.262 139.258H101.764V152.757H115.262V139.258Z" fill="black"/>
<path d="M128.76 139.258H115.262V152.757H128.76V139.258Z" fill="black"/>
<path d="M142.258 139.258H128.76V152.757H142.258V139.258Z" fill="black"/>
<path d="M182.753 139.258H169.254V152.757H182.753V139.258Z" fill="black"/>
<path d="M196.251 139.258H182.753V152.757H196.251V139.258Z" fill="black"/>
<path d="M236.746 139.258H223.247V152.757H236.746V139.258Z" fill="black"/>
<path d="M290.738 139.258H277.24V152.757H290.738V139.258Z" fill="black"/>
<path d="M331.232 139.258H317.734V152.757H331.232V139.258Z" fill="black"/>
<path d="M358.228 139.258H344.73V152.757H358.228V139.258Z" fill="black"/>
<path d="M371.727 139.258H358.228V152.757H371.727V139.258Z" fill="black"/>
<path d="M47.7715 152.757H34.2734V166.254H47.7715V152.757Z" fill="black"/>
<path d="M182.753 152.757H169.254V166.254H182.753V152.757Z" fill="black"/>
<path d="M209.749 152.757H196.251V166.254H209.749V152.757Z" fill="black"/>
<path d="M263.742 152.757H250.243V166.254H263.742V152.757Z" fill="black"/>
<path d="M277.24 152.757H263.742V166.254H277.24V152.757Z" fill="black"/>
<path d="M304.236 152.757H290.738V166.254H304.236V152.757Z" fill="black"/>
<path d="M358.228 152.757H344.73V166.254H358.228V152.757Z" fill="black"/>
<path d="M47.7715 166.255H34.2734V179.753H47.7715V166.255Z" fill="black"/>
<path d="M61.2696 166.255H47.7715V179.753H61.2696V166.255Z" fill="black"/>
<path d="M128.76 166.255H115.262V179.753H128.76V166.255Z" fill="black"/>
<path d="M155.757 166.255H142.258V179.753H155.757V166.255Z" fill="black"/>
<path d="M169.254 166.255H155.757V179.753H169.254V166.255Z" fill="black"/>
<path d="M182.753 166.255H169.254V179.753H182.753V166.255Z" fill="black"/>
<path d="M223.247 166.255H209.749V179.753H223.247V166.255Z" fill="black"/>
<path d="M236.746 166.255H223.247V179.753H236.746V166.255Z" fill="black"/>
<path d="M263.742 166.255H250.243V179.753H263.742V166.255Z" fill="black"/>
<path d="M304.236 166.255H290.738V179.753H304.236V166.255Z" fill="black"/>
<path d="M317.734 166.255H304.236V179.753H317.734V166.255Z" fill="black"/>
<path d="M74.7677 179.753H61.2696V193.251H74.7677V179.753Z" fill="black"/>
<path d="M88.266 179.753H74.7677V193.251H88.266V179.753Z" fill="black"/>
<path d="M101.764 179.753H88.266V193.251H101.764V179.753Z" fill="black"/>
<path d="M155.757 179.753H142.258V193.251H155.757V179.753Z" fill="black"/>
<path d="M182.753 179.753H169.254V193.251H182.753V179.753Z" fill="black"/>
<path d="M223.247 179.753H209.749V193.251H223.247V179.753Z" fill="black"/>
<path d="M236.746 179.753H223.247V193.251H236.746V179.753Z" fill="black"/>
<path d="M263.742 179.753H250.243V193.251H263.742V179.753Z" fill="black"/>
<path d="M277.24 179.753H263.742V193.251H277.24V179.753Z" fill="black"/>
<path d="M304.236 179.753H290.738V193.251H304.236V179.753Z" fill="black"/>
<path d="M331.232 179.753H317.734V193.251H331.232V179.753Z" fill="black"/>
<path d="M344.731 179.753H331.232V193.251H344.731V179.753Z" fill="black"/>
<path d="M47.7715 193.251H34.2734V206.749H47.7715V193.251Z" fill="black"/>
<path d="M101.764 193.251H88.266V206.749H101.764V193.251Z" fill="black"/>
<path d="M128.76 193.251H115.262V206.749H128.76V193.251Z" fill="black"/>
<path d="M142.258 193.251H128.76V206.749H142.258V193.251Z" fill="black"/>
<path d="M155.757 193.251H142.258V206.749H155.757V193.251Z" fill="black"/>
<path d="M209.749 193.251H196.251V206.749H209.749V193.251Z" fill="black"/>
<path d="M223.247 193.251H209.749V206.749H223.247V193.251Z" fill="black"/>
<path d="M236.746 193.251H223.247V206.749H236.746V193.251Z" fill="black"/>
<path d="M263.742 193.251H250.243V206.749H263.742V193.251Z" fill="black"/>
<path d="M277.24 193.251H263.742V206.749H277.24V193.251Z" fill="black"/>
<path d="M290.738 193.251H277.24V206.749H290.738V193.251Z" fill="black"/>
<path d="M304.236 193.251H290.738V206.749H304.236V193.251Z" fill="black"/>
<path d="M317.734 193.251H304.236V206.749H317.734V193.251Z" fill="black"/>
<path d="M344.731 193.251H331.232V206.749H344.731V193.251Z" fill="black"/>
<path d="M358.228 193.251H344.73V206.749H358.228V193.251Z" fill="black"/>
<path d="M371.727 193.251H358.228V206.749H371.727V193.251Z" fill="black"/>
<path d="M74.7677 206.749H61.2696V220.247H74.7677V206.749Z" fill="black"/>
<path d="M115.262 206.749H101.764V220.247H115.262V206.749Z" fill="black"/>
<path d="M142.258 206.749H128.76V220.247H142.258V206.749Z" fill="black"/>
<path d="M196.251 206.749H182.753V220.247H196.251V206.749Z" fill="black"/>
<path d="M223.247 206.749H209.749V220.247H223.247V206.749Z" fill="black"/>
<path d="M236.746 206.749H223.247V220.247H236.746V206.749Z" fill="black"/>
<path d="M250.243 206.749H236.746V220.247H250.243V206.749Z" fill="black"/>
<path d="M263.742 206.749H250.243V220.247H263.742V206.749Z" fill="black"/>
<path d="M277.24 206.749H263.742V220.247H277.24V206.749Z" fill="black"/>
<path d="M290.738 206.749H277.24V220.247H290.738V206.749Z" fill="black"/>
<path d="M304.236 206.749H290.738V220.247H304.236V206.749Z" fill="black"/>
<path d="M317.734 206.749H304.236V220.247H317.734V206.749Z" fill="black"/>
<path d="M371.727 206.749H358.228V220.247H371.727V206.749Z" fill="black"/>
<path d="M61.2696 220.247H47.7715V233.746H61.2696V220.247Z" fill="black"/>
<path d="M74.7677 220.247H61.2696V233.746H74.7677V220.247Z" fill="black"/>
<path d="M88.266 220.247H74.7677V233.746H88.266V220.247Z" fill="black"/>
<path d="M115.262 220.247H101.764V233.746H115.262V220.247Z" fill="black"/>
<path d="M128.76 220.247H115.262V233.746H128.76V220.247Z" fill="black"/>
<path d="M155.757 220.247H142.258V233.746H155.757V220.247Z" fill="black"/>
<path d="M169.254 220.247H155.757V233.746H169.254V220.247Z" fill="black"/>
<path d="M182.753 220.247H169.254V233.746H182.753V220.247Z" fill="black"/>
<path d="M209.749 220.247H196.251V233.746H209.749V220.247Z" fill="black"/>
<path d="M236.746 220.247H223.247V233.746H236.746V220.247Z" fill="black"/>
<path d="M263.742 220.247H250.243V233.746H263.742V220.247Z" fill="black"/>
<path d="M317.734 220.247H304.236V233.746H317.734V220.247Z" fill="black"/>
<path d="M344.731 220.247H331.232V233.746H344.731V220.247Z" fill="black"/>
<path d="M358.228 220.247H344.73V233.746H358.228V220.247Z" fill="black"/>
<path d="M47.7715 233.746H34.2734V247.243H47.7715V233.746Z" fill="black"/>
<path d="M101.764 233.746H88.266V247.243H101.764V233.746Z" fill="black"/>
<path d="M142.258 233.746H128.76V247.243H142.258V233.746Z" fill="black"/>
<path d="M169.254 233.746H155.757V247.243H169.254V233.746Z" fill="black"/>
<path d="M182.753 233.746H169.254V247.243H182.753V233.746Z" fill="black"/>
<path d="M196.251 233.746H182.753V247.243H196.251V233.746Z" fill="black"/>
<path d="M236.746 233.746H223.247V247.243H236.746V233.746Z" fill="black"/>
<path d="M250.243 233.746H236.746V247.243H250.243V233.746Z" fill="black"/>
<path d="M263.742 233.746H250.243V247.243H263.742V233.746Z" fill="black"/>
<path d="M277.24 233.746H263.742V247.243H277.24V233.746Z" fill="black"/>
<path d="M290.738 233.746H277.24V247.243H290.738V233.746Z" fill="black"/>
<path d="M304.236 233.746H290.738V247.243H304.236V233.746Z" fill="black"/>
<path d="M317.734 233.746H304.236V247.243H317.734V233.746Z" fill="black"/>
<path d="M371.727 233.746H358.228V247.243H371.727V233.746Z" fill="black"/>
<path d="M74.7677 247.243H61.2696V260.742H74.7677V247.243Z" fill="black"/>
<path d="M88.266 247.243H74.7677V260.742H88.266V247.243Z" fill="black"/>
<path d="M101.764 247.243H88.266V260.742H101.764V247.243Z" fill="black"/>
<path d="M128.76 247.243H115.262V260.742H128.76V247.243Z" fill="black"/>
<path d="M155.757 247.243H142.258V260.742H155.757V247.243Z" fill="black"/>
<path d="M169.254 247.243H155.757V260.742H169.254V247.243Z" fill="black"/>
<path d="M223.247 247.243H209.749V260.742H223.247V247.243Z" fill="black"/>
<path d="M263.742 247.243H250.243V260.742H263.742V247.243Z" fill="black"/>
<path d="M277.24 247.243H263.742V260.742H277.24V247.243Z" fill="black"/>
<path d="M290.738 247.243H277.24V260.742H290.738V247.243Z" fill="black"/>
<path d="M304.236 247.243H290.738V260.742H304.236V247.243Z" fill="black"/>
<path d="M317.734 247.243H304.236V260.742H317.734V247.243Z" fill="black"/>
<path d="M331.232 247.243H317.734V260.742H331.232V247.243Z" fill="black"/>
<path d="M344.731 247.243H331.232V260.742H344.731V247.243Z" fill="black"/>
<path d="M358.228 247.243H344.73V260.742H358.228V247.243Z" fill="black"/>
<path d="M371.727 247.243H358.228V260.742H371.727V247.243Z" fill="black"/>
<path d="M155.757 260.742H142.258V274.24H155.757V260.742Z" fill="black"/>
<path d="M169.254 260.742H155.757V274.24H169.254V260.742Z" fill="black"/>
<path d="M182.753 260.742H169.254V274.24H182.753V260.742Z" fill="black"/>
<path d="M196.251 260.742H182.753V274.24H196.251V260.742Z" fill="black"/>
<path d="M250.243 260.742H236.746V274.24H250.243V260.742Z" fill="black"/>
<path d="M263.742 260.742H250.243V274.24H263.742V260.742Z" fill="black"/>
<path d="M317.734 260.742H304.236V274.24H317.734V260.742Z" fill="black"/>
<path d="M344.731 260.742H331.232V274.24H344.731V260.742Z" fill="black"/>
<path d="M371.727 260.742H358.228V274.24H371.727V260.742Z" fill="black"/>
<path d="M155.757 274.24H142.258V287.738H155.757V274.24Z" fill="black"/>
<path d="M169.254 274.24H155.757V287.738H169.254V274.24Z" fill="black"/>
<path d="M182.753 274.24H169.254V287.738H182.753V274.24Z" fill="black"/>
<path d="M209.749 274.24H196.251V287.738H209.749V274.24Z" fill="black"/>
<path d="M236.746 274.24H223.247V287.738H236.746V274.24Z" fill="black"/>
<path d="M263.742 274.24H250.243V287.738H263.742V274.24Z" fill="black"/>
<path d="M290.738 274.24H277.24V287.738H290.738V274.24Z" fill="black"/>
<path d="M317.734 274.24H304.236V287.738H317.734V274.24Z" fill="black"/>
<path d="M344.731 274.24H331.232V287.738H344.731V274.24Z" fill="black"/>
<path d="M358.228 274.24H344.73V287.738H358.228V274.24Z" fill="black"/>
<path d="M371.727 274.24H358.228V287.738H371.727V274.24Z" fill="black"/>
<path d="M155.757 287.738H142.258V301.236H155.757V287.738Z" fill="black"/>
<path d="M182.753 287.738H169.254V301.236H182.753V287.738Z" fill="black"/>
<path d="M250.243 287.738H236.746V301.236H250.243V287.738Z" fill="black"/>
<path d="M263.742 287.738H250.243V301.236H263.742V287.738Z" fill="black"/>
<path d="M317.734 287.738H304.236V301.236H317.734V287.738Z" fill="black"/>
<path d="M358.228 287.738H344.73V301.236H358.228V287.738Z" fill="black"/>
<path d="M371.727 287.738H358.228V301.236H371.727V287.738Z" fill="black"/>
<path d="M209.749 301.236H196.251V314.734H209.749V301.236Z" fill="black"/>
<path d="M263.742 301.236H250.243V314.734H263.742V301.236Z" fill="black"/>
<path d="M277.24 301.236H263.742V314.734H277.24V301.236Z" fill="black"/>
<path d="M290.738 301.236H277.24V314.734H290.738V301.236Z" fill="black"/>
<path d="M304.236 301.236H290.738V314.734H304.236V301.236Z" fill="black"/>
<path d="M317.734 301.236H304.236V314.734H317.734V301.236Z" fill="black"/>
<path d="M331.232 301.236H317.734V314.734H331.232V301.236Z" fill="black"/>
<path d="M371.727 301.236H358.228V314.734H371.727V301.236Z" fill="black"/>
<path d="M155.757 314.734H142.258V328.232H155.757V314.734Z" fill="black"/>
<path d="M196.251 314.734H182.753V328.232H196.251V314.734Z" fill="black"/>
<path d="M223.247 314.734H209.749V328.232H223.247V314.734Z" fill="black"/>
<path d="M277.24 314.734H263.742V328.232H277.24V314.734Z" fill="black"/>
<path d="M290.738 314.734H277.24V328.232H290.738V314.734Z" fill="black"/>
<path d="M317.734 314.734H304.236V328.232H317.734V314.734Z" fill="black"/>
<path d="M331.232 314.734H317.734V328.232H331.232V314.734Z" fill="black"/>
<path d="M344.731 314.734H331.232V328.232H344.731V314.734Z" fill="black"/>
<path d="M358.228 314.734H344.73V328.232H358.228V314.734Z" fill="black"/>
<path d="M371.727 314.734H358.228V328.232H371.727V314.734Z" fill="black"/>
<path d="M155.757 328.232H142.258V341.73H155.757V328.232Z" fill="black"/>
<path d="M182.753 328.232H169.254V341.73H182.753V328.232Z" fill="black"/>
<path d="M196.251 328.232H182.753V341.73H196.251V328.232Z" fill="black"/>
<path d="M223.247 328.232H209.749V341.73H223.247V328.232Z" fill="black"/>
<path d="M263.742 328.232H250.243V341.73H263.742V328.232Z" fill="black"/>
<path d="M277.24 328.232H263.742V341.73H277.24V328.232Z" fill="black"/>
<path d="M290.738 328.232H277.24V341.73H290.738V328.232Z" fill="black"/>
<path d="M317.734 328.232H304.236V341.73H317.734V328.232Z" fill="black"/>
<path d="M344.731 328.232H331.232V341.73H344.731V328.232Z" fill="black"/>
<path d="M358.228 328.232H344.73V341.73H358.228V328.232Z" fill="black"/>
<path d="M169.254 341.73H155.757V355.228H169.254V341.73Z" fill="black"/>
<path d="M196.251 341.73H182.753V355.228H196.251V341.73Z" fill="black"/>
<path d="M223.247 341.73H209.749V355.228H223.247V341.73Z" fill="black"/>
<path d="M277.24 341.73H263.742V355.228H277.24V341.73Z" fill="black"/>
<path d="M290.738 341.73H277.24V355.228H290.738V341.73Z" fill="black"/>
<path d="M317.734 341.73H304.236V355.228H317.734V341.73Z" fill="black"/>
<path d="M344.731 341.73H331.232V355.228H344.731V341.73Z" fill="black"/>
<path d="M155.757 355.229H142.258V368.727H155.757V355.229Z" fill="black"/>
<path d="M209.749 355.229H196.251V368.727H209.749V355.229Z" fill="black"/>
<path d="M223.247 355.229H209.749V368.727H223.247V355.229Z" fill="black"/>
<path d="M236.746 355.229H223.247V368.727H236.746V355.229Z" fill="black"/>
<path d="M290.738 355.229H277.24V368.727H290.738V355.229Z" fill="black"/>
<path d="M304.236 355.229H290.738V368.727H304.236V355.229Z" fill="black"/>
<path d="M317.734 355.229H304.236V368.727H317.734V355.229Z" fill="black"/>
<path d="M331.232 355.229H317.734V368.727H331.232V355.229Z" fill="black"/>
<path d="M344.731 355.229H331.232V368.727H344.731V355.229Z" fill="black"/>
<path d="M358.228 355.229H344.73V368.727H358.228V355.229Z" fill="black"/>
<path d="M371.727 355.229H358.228V368.727H371.727V355.229Z" fill="black"/>
<path d="M114.587 31.2733H48.4464H34.2734V45.4464V111.587V125.76H48.4464H114.587H128.76V111.587V45.4464V31.2733H114.587ZM114.587 111.587H48.4464V45.4464H114.587V111.587Z" fill="black"/>
<path d="M357.553 31.2733H291.413H277.24V45.4464V111.587V125.76H291.413H357.553H371.727V111.587V45.4464V31.2733H357.553ZM357.553 111.587H291.413V45.4464H357.553V111.587Z" fill="black"/>
<path d="M114.587 274.24H48.4464H34.2734V288.413V354.553V368.727H48.4464H114.587H128.76V354.553V288.413V274.24H114.587ZM114.587 354.553H48.4464V288.413H114.587V354.553Z" fill="black"/>
<path d="M101.764 58.2697H61.2696V98.7639H101.764V58.2697Z" fill="black"/>
<path d="M344.731 58.2697H304.236V98.7639H344.731V58.2697Z" fill="black"/>
<path d="M101.764 301.236H61.2696V341.73H101.764V301.236Z" fill="black"/>
</svg>
